%TF.GenerationSoftware,KiCad,Pcbnew,9.0.4*%
%TF.CreationDate,2026-02-18T20:57:08-05:00*%
%TF.ProjectId,seeed_studio_GNSS,73656565-645f-4737-9475-64696f5f474e,rev?*%
%TF.SameCoordinates,Original*%
%TF.FileFunction,Legend,Bot*%
%TF.FilePolarity,Positive*%
%FSLAX46Y46*%
G04 Gerber Fmt 4.6, Leading zero omitted, Abs format (unit mm)*
G04 Created by KiCad (PCBNEW 9.0.4) date 2026-02-18 20:57:08*
%MOMM*%
%LPD*%
G01*
G04 APERTURE LIST*
G04 Aperture macros list*
%AMRoundRect*
0 Rectangle with rounded corners*
0 $1 Rounding radius*
0 $2 $3 $4 $5 $6 $7 $8 $9 X,Y pos of 4 corners*
0 Add a 4 corners polygon primitive as box body*
4,1,4,$2,$3,$4,$5,$6,$7,$8,$9,$2,$3,0*
0 Add four circle primitives for the rounded corners*
1,1,$1+$1,$2,$3*
1,1,$1+$1,$4,$5*
1,1,$1+$1,$6,$7*
1,1,$1+$1,$8,$9*
0 Add four rect primitives between the rounded corners*
20,1,$1+$1,$2,$3,$4,$5,0*
20,1,$1+$1,$4,$5,$6,$7,0*
20,1,$1+$1,$6,$7,$8,$9,0*
20,1,$1+$1,$8,$9,$2,$3,0*%
G04 Aperture macros list end*
%ADD10C,0.125000*%
%ADD11C,0.100000*%
%ADD12C,0.000000*%
%ADD13C,0.120000*%
%ADD14RoundRect,0.135000X0.135000X0.185000X-0.135000X0.185000X-0.135000X-0.185000X0.135000X-0.185000X0*%
%ADD15C,5.600000*%
G04 APERTURE END LIST*
D10*
X180927474Y-102628880D02*
X181260807Y-101628880D01*
X181260807Y-101628880D02*
X181594140Y-102628880D01*
X181689379Y-101533642D02*
X182451283Y-101533642D01*
X183022712Y-102152690D02*
X183165569Y-102105071D01*
X183165569Y-102105071D02*
X183213188Y-102057452D01*
X183213188Y-102057452D02*
X183260807Y-101962214D01*
X183260807Y-101962214D02*
X183260807Y-101819357D01*
X183260807Y-101819357D02*
X183213188Y-101724119D01*
X183213188Y-101724119D02*
X183165569Y-101676500D01*
X183165569Y-101676500D02*
X183070331Y-101628880D01*
X183070331Y-101628880D02*
X182689379Y-101628880D01*
X182689379Y-101628880D02*
X182689379Y-102628880D01*
X182689379Y-102628880D02*
X183022712Y-102628880D01*
X183022712Y-102628880D02*
X183117950Y-102581261D01*
X183117950Y-102581261D02*
X183165569Y-102533642D01*
X183165569Y-102533642D02*
X183213188Y-102438404D01*
X183213188Y-102438404D02*
X183213188Y-102343166D01*
X183213188Y-102343166D02*
X183165569Y-102247928D01*
X183165569Y-102247928D02*
X183117950Y-102200309D01*
X183117950Y-102200309D02*
X183022712Y-102152690D01*
X183022712Y-102152690D02*
X182689379Y-102152690D01*
X183689379Y-101628880D02*
X183689379Y-102628880D01*
X184260807Y-101628880D02*
X183832236Y-102200309D01*
X184260807Y-102628880D02*
X183689379Y-102057452D01*
X184689379Y-101628880D02*
X184689379Y-102628880D01*
X184689379Y-102628880D02*
X185070331Y-102628880D01*
X185070331Y-102628880D02*
X185165569Y-102581261D01*
X185165569Y-102581261D02*
X185213188Y-102533642D01*
X185213188Y-102533642D02*
X185260807Y-102438404D01*
X185260807Y-102438404D02*
X185260807Y-102295547D01*
X185260807Y-102295547D02*
X185213188Y-102200309D01*
X185213188Y-102200309D02*
X185165569Y-102152690D01*
X185165569Y-102152690D02*
X185070331Y-102105071D01*
X185070331Y-102105071D02*
X184689379Y-102105071D01*
X170022712Y-109676500D02*
X170165569Y-109628880D01*
X170165569Y-109628880D02*
X170403664Y-109628880D01*
X170403664Y-109628880D02*
X170498902Y-109676500D01*
X170498902Y-109676500D02*
X170546521Y-109724119D01*
X170546521Y-109724119D02*
X170594140Y-109819357D01*
X170594140Y-109819357D02*
X170594140Y-109914595D01*
X170594140Y-109914595D02*
X170546521Y-110009833D01*
X170546521Y-110009833D02*
X170498902Y-110057452D01*
X170498902Y-110057452D02*
X170403664Y-110105071D01*
X170403664Y-110105071D02*
X170213188Y-110152690D01*
X170213188Y-110152690D02*
X170117950Y-110200309D01*
X170117950Y-110200309D02*
X170070331Y-110247928D01*
X170070331Y-110247928D02*
X170022712Y-110343166D01*
X170022712Y-110343166D02*
X170022712Y-110438404D01*
X170022712Y-110438404D02*
X170070331Y-110533642D01*
X170070331Y-110533642D02*
X170117950Y-110581261D01*
X170117950Y-110581261D02*
X170213188Y-110628880D01*
X170213188Y-110628880D02*
X170451283Y-110628880D01*
X170451283Y-110628880D02*
X170594140Y-110581261D01*
X171165569Y-109628880D02*
X171070331Y-109676500D01*
X171070331Y-109676500D02*
X171022712Y-109771738D01*
X171022712Y-109771738D02*
X171022712Y-110628880D01*
X171689379Y-109628880D02*
X171594141Y-109676500D01*
X171594141Y-109676500D02*
X171546522Y-109724119D01*
X171546522Y-109724119D02*
X171498903Y-109819357D01*
X171498903Y-109819357D02*
X171498903Y-110105071D01*
X171498903Y-110105071D02*
X171546522Y-110200309D01*
X171546522Y-110200309D02*
X171594141Y-110247928D01*
X171594141Y-110247928D02*
X171689379Y-110295547D01*
X171689379Y-110295547D02*
X171832236Y-110295547D01*
X171832236Y-110295547D02*
X171927474Y-110247928D01*
X171927474Y-110247928D02*
X171975093Y-110200309D01*
X171975093Y-110200309D02*
X172022712Y-110105071D01*
X172022712Y-110105071D02*
X172022712Y-109819357D01*
X172022712Y-109819357D02*
X171975093Y-109724119D01*
X171975093Y-109724119D02*
X171927474Y-109676500D01*
X171927474Y-109676500D02*
X171832236Y-109628880D01*
X171832236Y-109628880D02*
X171689379Y-109628880D01*
X172356046Y-110295547D02*
X172546522Y-109628880D01*
X172546522Y-109628880D02*
X172736998Y-110105071D01*
X172736998Y-110105071D02*
X172927474Y-109628880D01*
X172927474Y-109628880D02*
X173117950Y-110295547D01*
X173498903Y-110295547D02*
X173498903Y-109295547D01*
X173498903Y-110247928D02*
X173594141Y-110295547D01*
X173594141Y-110295547D02*
X173784617Y-110295547D01*
X173784617Y-110295547D02*
X173879855Y-110247928D01*
X173879855Y-110247928D02*
X173927474Y-110200309D01*
X173927474Y-110200309D02*
X173975093Y-110105071D01*
X173975093Y-110105071D02*
X173975093Y-109819357D01*
X173975093Y-109819357D02*
X173927474Y-109724119D01*
X173927474Y-109724119D02*
X173879855Y-109676500D01*
X173879855Y-109676500D02*
X173784617Y-109628880D01*
X173784617Y-109628880D02*
X173594141Y-109628880D01*
X173594141Y-109628880D02*
X173498903Y-109676500D01*
X174546522Y-109628880D02*
X174451284Y-109676500D01*
X174451284Y-109676500D02*
X174403665Y-109724119D01*
X174403665Y-109724119D02*
X174356046Y-109819357D01*
X174356046Y-109819357D02*
X174356046Y-110105071D01*
X174356046Y-110105071D02*
X174403665Y-110200309D01*
X174403665Y-110200309D02*
X174451284Y-110247928D01*
X174451284Y-110247928D02*
X174546522Y-110295547D01*
X174546522Y-110295547D02*
X174689379Y-110295547D01*
X174689379Y-110295547D02*
X174784617Y-110247928D01*
X174784617Y-110247928D02*
X174832236Y-110200309D01*
X174832236Y-110200309D02*
X174879855Y-110105071D01*
X174879855Y-110105071D02*
X174879855Y-109819357D01*
X174879855Y-109819357D02*
X174832236Y-109724119D01*
X174832236Y-109724119D02*
X174784617Y-109676500D01*
X174784617Y-109676500D02*
X174689379Y-109628880D01*
X174689379Y-109628880D02*
X174546522Y-109628880D01*
X175308427Y-109628880D02*
X175308427Y-110628880D01*
X175403665Y-110009833D02*
X175689379Y-109628880D01*
X175689379Y-110295547D02*
X175308427Y-109914595D01*
X176498903Y-109676500D02*
X176403665Y-109628880D01*
X176403665Y-109628880D02*
X176213189Y-109628880D01*
X176213189Y-109628880D02*
X176117951Y-109676500D01*
X176117951Y-109676500D02*
X176070332Y-109771738D01*
X176070332Y-109771738D02*
X176070332Y-110152690D01*
X176070332Y-110152690D02*
X176117951Y-110247928D01*
X176117951Y-110247928D02*
X176213189Y-110295547D01*
X176213189Y-110295547D02*
X176403665Y-110295547D01*
X176403665Y-110295547D02*
X176498903Y-110247928D01*
X176498903Y-110247928D02*
X176546522Y-110152690D01*
X176546522Y-110152690D02*
X176546522Y-110057452D01*
X176546522Y-110057452D02*
X176070332Y-109962214D01*
X177736999Y-110152690D02*
X178070332Y-110152690D01*
X178213189Y-109628880D02*
X177736999Y-109628880D01*
X177736999Y-109628880D02*
X177736999Y-110628880D01*
X177736999Y-110628880D02*
X178213189Y-110628880D01*
X178641761Y-110295547D02*
X178641761Y-109628880D01*
X178641761Y-110200309D02*
X178689380Y-110247928D01*
X178689380Y-110247928D02*
X178784618Y-110295547D01*
X178784618Y-110295547D02*
X178927475Y-110295547D01*
X178927475Y-110295547D02*
X179022713Y-110247928D01*
X179022713Y-110247928D02*
X179070332Y-110152690D01*
X179070332Y-110152690D02*
X179070332Y-109628880D01*
X179975094Y-110295547D02*
X179975094Y-109486023D01*
X179975094Y-109486023D02*
X179927475Y-109390785D01*
X179927475Y-109390785D02*
X179879856Y-109343166D01*
X179879856Y-109343166D02*
X179784618Y-109295547D01*
X179784618Y-109295547D02*
X179641761Y-109295547D01*
X179641761Y-109295547D02*
X179546523Y-109343166D01*
X179975094Y-109676500D02*
X179879856Y-109628880D01*
X179879856Y-109628880D02*
X179689380Y-109628880D01*
X179689380Y-109628880D02*
X179594142Y-109676500D01*
X179594142Y-109676500D02*
X179546523Y-109724119D01*
X179546523Y-109724119D02*
X179498904Y-109819357D01*
X179498904Y-109819357D02*
X179498904Y-110105071D01*
X179498904Y-110105071D02*
X179546523Y-110200309D01*
X179546523Y-110200309D02*
X179594142Y-110247928D01*
X179594142Y-110247928D02*
X179689380Y-110295547D01*
X179689380Y-110295547D02*
X179879856Y-110295547D01*
X179879856Y-110295547D02*
X179975094Y-110247928D01*
X180451285Y-109628880D02*
X180451285Y-110295547D01*
X180451285Y-110628880D02*
X180403666Y-110581261D01*
X180403666Y-110581261D02*
X180451285Y-110533642D01*
X180451285Y-110533642D02*
X180498904Y-110581261D01*
X180498904Y-110581261D02*
X180451285Y-110628880D01*
X180451285Y-110628880D02*
X180451285Y-110533642D01*
X180927475Y-110295547D02*
X180927475Y-109628880D01*
X180927475Y-110200309D02*
X180975094Y-110247928D01*
X180975094Y-110247928D02*
X181070332Y-110295547D01*
X181070332Y-110295547D02*
X181213189Y-110295547D01*
X181213189Y-110295547D02*
X181308427Y-110247928D01*
X181308427Y-110247928D02*
X181356046Y-110152690D01*
X181356046Y-110152690D02*
X181356046Y-109628880D01*
X182213189Y-109676500D02*
X182117951Y-109628880D01*
X182117951Y-109628880D02*
X181927475Y-109628880D01*
X181927475Y-109628880D02*
X181832237Y-109676500D01*
X181832237Y-109676500D02*
X181784618Y-109771738D01*
X181784618Y-109771738D02*
X181784618Y-110152690D01*
X181784618Y-110152690D02*
X181832237Y-110247928D01*
X181832237Y-110247928D02*
X181927475Y-110295547D01*
X181927475Y-110295547D02*
X182117951Y-110295547D01*
X182117951Y-110295547D02*
X182213189Y-110247928D01*
X182213189Y-110247928D02*
X182260808Y-110152690D01*
X182260808Y-110152690D02*
X182260808Y-110057452D01*
X182260808Y-110057452D02*
X181784618Y-109962214D01*
X183070332Y-109676500D02*
X182975094Y-109628880D01*
X182975094Y-109628880D02*
X182784618Y-109628880D01*
X182784618Y-109628880D02*
X182689380Y-109676500D01*
X182689380Y-109676500D02*
X182641761Y-109771738D01*
X182641761Y-109771738D02*
X182641761Y-110152690D01*
X182641761Y-110152690D02*
X182689380Y-110247928D01*
X182689380Y-110247928D02*
X182784618Y-110295547D01*
X182784618Y-110295547D02*
X182975094Y-110295547D01*
X182975094Y-110295547D02*
X183070332Y-110247928D01*
X183070332Y-110247928D02*
X183117951Y-110152690D01*
X183117951Y-110152690D02*
X183117951Y-110057452D01*
X183117951Y-110057452D02*
X182641761Y-109962214D01*
X183546523Y-109628880D02*
X183546523Y-110295547D01*
X183546523Y-110105071D02*
X183594142Y-110200309D01*
X183594142Y-110200309D02*
X183641761Y-110247928D01*
X183641761Y-110247928D02*
X183736999Y-110295547D01*
X183736999Y-110295547D02*
X183832237Y-110295547D01*
X184165571Y-109628880D02*
X184165571Y-110295547D01*
X184165571Y-110628880D02*
X184117952Y-110581261D01*
X184117952Y-110581261D02*
X184165571Y-110533642D01*
X184165571Y-110533642D02*
X184213190Y-110581261D01*
X184213190Y-110581261D02*
X184165571Y-110628880D01*
X184165571Y-110628880D02*
X184165571Y-110533642D01*
X184641761Y-110295547D02*
X184641761Y-109628880D01*
X184641761Y-110200309D02*
X184689380Y-110247928D01*
X184689380Y-110247928D02*
X184784618Y-110295547D01*
X184784618Y-110295547D02*
X184927475Y-110295547D01*
X184927475Y-110295547D02*
X185022713Y-110247928D01*
X185022713Y-110247928D02*
X185070332Y-110152690D01*
X185070332Y-110152690D02*
X185070332Y-109628880D01*
X185975094Y-110295547D02*
X185975094Y-109486023D01*
X185975094Y-109486023D02*
X185927475Y-109390785D01*
X185927475Y-109390785D02*
X185879856Y-109343166D01*
X185879856Y-109343166D02*
X185784618Y-109295547D01*
X185784618Y-109295547D02*
X185641761Y-109295547D01*
X185641761Y-109295547D02*
X185546523Y-109343166D01*
X185975094Y-109676500D02*
X185879856Y-109628880D01*
X185879856Y-109628880D02*
X185689380Y-109628880D01*
X185689380Y-109628880D02*
X185594142Y-109676500D01*
X185594142Y-109676500D02*
X185546523Y-109724119D01*
X185546523Y-109724119D02*
X185498904Y-109819357D01*
X185498904Y-109819357D02*
X185498904Y-110105071D01*
X185498904Y-110105071D02*
X185546523Y-110200309D01*
X185546523Y-110200309D02*
X185594142Y-110247928D01*
X185594142Y-110247928D02*
X185689380Y-110295547D01*
X185689380Y-110295547D02*
X185879856Y-110295547D01*
X185879856Y-110295547D02*
X185975094Y-110247928D01*
X186451285Y-109724119D02*
X186498904Y-109676500D01*
X186498904Y-109676500D02*
X186451285Y-109628880D01*
X186451285Y-109628880D02*
X186403666Y-109676500D01*
X186403666Y-109676500D02*
X186451285Y-109724119D01*
X186451285Y-109724119D02*
X186451285Y-109628880D01*
D11*
X150387217Y-108151390D02*
X150530074Y-108103771D01*
X150530074Y-108103771D02*
X150577693Y-108056152D01*
X150577693Y-108056152D02*
X150625312Y-107960914D01*
X150625312Y-107960914D02*
X150625312Y-107818057D01*
X150625312Y-107818057D02*
X150577693Y-107722819D01*
X150577693Y-107722819D02*
X150530074Y-107675200D01*
X150530074Y-107675200D02*
X150434836Y-107627580D01*
X150434836Y-107627580D02*
X150053884Y-107627580D01*
X150053884Y-107627580D02*
X150053884Y-108627580D01*
X150053884Y-108627580D02*
X150387217Y-108627580D01*
X150387217Y-108627580D02*
X150482455Y-108579961D01*
X150482455Y-108579961D02*
X150530074Y-108532342D01*
X150530074Y-108532342D02*
X150577693Y-108437104D01*
X150577693Y-108437104D02*
X150577693Y-108341866D01*
X150577693Y-108341866D02*
X150530074Y-108246628D01*
X150530074Y-108246628D02*
X150482455Y-108199009D01*
X150482455Y-108199009D02*
X150387217Y-108151390D01*
X150387217Y-108151390D02*
X150053884Y-108151390D01*
X151006265Y-107913295D02*
X151482455Y-107913295D01*
X150911027Y-107627580D02*
X151244360Y-108627580D01*
X151244360Y-108627580D02*
X151577693Y-107627580D01*
X151768170Y-108627580D02*
X152339598Y-108627580D01*
X152053884Y-107627580D02*
X152053884Y-108627580D01*
X171482455Y-92544247D02*
X171482455Y-91734723D01*
X171482455Y-91734723D02*
X171434836Y-91639485D01*
X171434836Y-91639485D02*
X171387217Y-91591866D01*
X171387217Y-91591866D02*
X171291979Y-91544247D01*
X171291979Y-91544247D02*
X171149122Y-91544247D01*
X171149122Y-91544247D02*
X171053884Y-91591866D01*
X171482455Y-91925200D02*
X171387217Y-91877580D01*
X171387217Y-91877580D02*
X171196741Y-91877580D01*
X171196741Y-91877580D02*
X171101503Y-91925200D01*
X171101503Y-91925200D02*
X171053884Y-91972819D01*
X171053884Y-91972819D02*
X171006265Y-92068057D01*
X171006265Y-92068057D02*
X171006265Y-92353771D01*
X171006265Y-92353771D02*
X171053884Y-92449009D01*
X171053884Y-92449009D02*
X171101503Y-92496628D01*
X171101503Y-92496628D02*
X171196741Y-92544247D01*
X171196741Y-92544247D02*
X171387217Y-92544247D01*
X171387217Y-92544247D02*
X171482455Y-92496628D01*
X171958646Y-91877580D02*
X171958646Y-92544247D01*
X171958646Y-92877580D02*
X171911027Y-92829961D01*
X171911027Y-92829961D02*
X171958646Y-92782342D01*
X171958646Y-92782342D02*
X172006265Y-92829961D01*
X172006265Y-92829961D02*
X171958646Y-92877580D01*
X171958646Y-92877580D02*
X171958646Y-92782342D01*
X172291979Y-92544247D02*
X172672931Y-92544247D01*
X172434836Y-92877580D02*
X172434836Y-92020438D01*
X172434836Y-92020438D02*
X172482455Y-91925200D01*
X172482455Y-91925200D02*
X172577693Y-91877580D01*
X172577693Y-91877580D02*
X172672931Y-91877580D01*
X173006265Y-91877580D02*
X173006265Y-92877580D01*
X173434836Y-91877580D02*
X173434836Y-92401390D01*
X173434836Y-92401390D02*
X173387217Y-92496628D01*
X173387217Y-92496628D02*
X173291979Y-92544247D01*
X173291979Y-92544247D02*
X173149122Y-92544247D01*
X173149122Y-92544247D02*
X173053884Y-92496628D01*
X173053884Y-92496628D02*
X173006265Y-92449009D01*
X174339598Y-92544247D02*
X174339598Y-91877580D01*
X173911027Y-92544247D02*
X173911027Y-92020438D01*
X173911027Y-92020438D02*
X173958646Y-91925200D01*
X173958646Y-91925200D02*
X174053884Y-91877580D01*
X174053884Y-91877580D02*
X174196741Y-91877580D01*
X174196741Y-91877580D02*
X174291979Y-91925200D01*
X174291979Y-91925200D02*
X174339598Y-91972819D01*
X174815789Y-91877580D02*
X174815789Y-92877580D01*
X174815789Y-92496628D02*
X174911027Y-92544247D01*
X174911027Y-92544247D02*
X175101503Y-92544247D01*
X175101503Y-92544247D02*
X175196741Y-92496628D01*
X175196741Y-92496628D02*
X175244360Y-92449009D01*
X175244360Y-92449009D02*
X175291979Y-92353771D01*
X175291979Y-92353771D02*
X175291979Y-92068057D01*
X175291979Y-92068057D02*
X175244360Y-91972819D01*
X175244360Y-91972819D02*
X175196741Y-91925200D01*
X175196741Y-91925200D02*
X175101503Y-91877580D01*
X175101503Y-91877580D02*
X174911027Y-91877580D01*
X174911027Y-91877580D02*
X174815789Y-91925200D01*
X175720551Y-91972819D02*
X175768170Y-91925200D01*
X175768170Y-91925200D02*
X175720551Y-91877580D01*
X175720551Y-91877580D02*
X175672932Y-91925200D01*
X175672932Y-91925200D02*
X175720551Y-91972819D01*
X175720551Y-91972819D02*
X175720551Y-91877580D01*
X176625312Y-91925200D02*
X176530074Y-91877580D01*
X176530074Y-91877580D02*
X176339598Y-91877580D01*
X176339598Y-91877580D02*
X176244360Y-91925200D01*
X176244360Y-91925200D02*
X176196741Y-91972819D01*
X176196741Y-91972819D02*
X176149122Y-92068057D01*
X176149122Y-92068057D02*
X176149122Y-92353771D01*
X176149122Y-92353771D02*
X176196741Y-92449009D01*
X176196741Y-92449009D02*
X176244360Y-92496628D01*
X176244360Y-92496628D02*
X176339598Y-92544247D01*
X176339598Y-92544247D02*
X176530074Y-92544247D01*
X176530074Y-92544247D02*
X176625312Y-92496628D01*
X177196741Y-91877580D02*
X177101503Y-91925200D01*
X177101503Y-91925200D02*
X177053884Y-91972819D01*
X177053884Y-91972819D02*
X177006265Y-92068057D01*
X177006265Y-92068057D02*
X177006265Y-92353771D01*
X177006265Y-92353771D02*
X177053884Y-92449009D01*
X177053884Y-92449009D02*
X177101503Y-92496628D01*
X177101503Y-92496628D02*
X177196741Y-92544247D01*
X177196741Y-92544247D02*
X177339598Y-92544247D01*
X177339598Y-92544247D02*
X177434836Y-92496628D01*
X177434836Y-92496628D02*
X177482455Y-92449009D01*
X177482455Y-92449009D02*
X177530074Y-92353771D01*
X177530074Y-92353771D02*
X177530074Y-92068057D01*
X177530074Y-92068057D02*
X177482455Y-91972819D01*
X177482455Y-91972819D02*
X177434836Y-91925200D01*
X177434836Y-91925200D02*
X177339598Y-91877580D01*
X177339598Y-91877580D02*
X177196741Y-91877580D01*
X177958646Y-91877580D02*
X177958646Y-92544247D01*
X177958646Y-92449009D02*
X178006265Y-92496628D01*
X178006265Y-92496628D02*
X178101503Y-92544247D01*
X178101503Y-92544247D02*
X178244360Y-92544247D01*
X178244360Y-92544247D02*
X178339598Y-92496628D01*
X178339598Y-92496628D02*
X178387217Y-92401390D01*
X178387217Y-92401390D02*
X178387217Y-91877580D01*
X178387217Y-92401390D02*
X178434836Y-92496628D01*
X178434836Y-92496628D02*
X178530074Y-92544247D01*
X178530074Y-92544247D02*
X178672931Y-92544247D01*
X178672931Y-92544247D02*
X178768170Y-92496628D01*
X178768170Y-92496628D02*
X178815789Y-92401390D01*
X178815789Y-92401390D02*
X178815789Y-91877580D01*
X180006264Y-92925200D02*
X179149122Y-91639485D01*
X180768169Y-91877580D02*
X180768169Y-92401390D01*
X180768169Y-92401390D02*
X180720550Y-92496628D01*
X180720550Y-92496628D02*
X180625312Y-92544247D01*
X180625312Y-92544247D02*
X180434836Y-92544247D01*
X180434836Y-92544247D02*
X180339598Y-92496628D01*
X180768169Y-91925200D02*
X180672931Y-91877580D01*
X180672931Y-91877580D02*
X180434836Y-91877580D01*
X180434836Y-91877580D02*
X180339598Y-91925200D01*
X180339598Y-91925200D02*
X180291979Y-92020438D01*
X180291979Y-92020438D02*
X180291979Y-92115676D01*
X180291979Y-92115676D02*
X180339598Y-92210914D01*
X180339598Y-92210914D02*
X180434836Y-92258533D01*
X180434836Y-92258533D02*
X180672931Y-92258533D01*
X180672931Y-92258533D02*
X180768169Y-92306152D01*
X181244360Y-92544247D02*
X181244360Y-91877580D01*
X181244360Y-92449009D02*
X181291979Y-92496628D01*
X181291979Y-92496628D02*
X181387217Y-92544247D01*
X181387217Y-92544247D02*
X181530074Y-92544247D01*
X181530074Y-92544247D02*
X181625312Y-92496628D01*
X181625312Y-92496628D02*
X181672931Y-92401390D01*
X181672931Y-92401390D02*
X181672931Y-91877580D01*
X182577693Y-91925200D02*
X182482455Y-91877580D01*
X182482455Y-91877580D02*
X182291979Y-91877580D01*
X182291979Y-91877580D02*
X182196741Y-91925200D01*
X182196741Y-91925200D02*
X182149122Y-91972819D01*
X182149122Y-91972819D02*
X182101503Y-92068057D01*
X182101503Y-92068057D02*
X182101503Y-92353771D01*
X182101503Y-92353771D02*
X182149122Y-92449009D01*
X182149122Y-92449009D02*
X182196741Y-92496628D01*
X182196741Y-92496628D02*
X182291979Y-92544247D01*
X182291979Y-92544247D02*
X182482455Y-92544247D01*
X182482455Y-92544247D02*
X182577693Y-92496628D01*
X183006265Y-91877580D02*
X183006265Y-92877580D01*
X183434836Y-91877580D02*
X183434836Y-92401390D01*
X183434836Y-92401390D02*
X183387217Y-92496628D01*
X183387217Y-92496628D02*
X183291979Y-92544247D01*
X183291979Y-92544247D02*
X183149122Y-92544247D01*
X183149122Y-92544247D02*
X183053884Y-92496628D01*
X183053884Y-92496628D02*
X183006265Y-92449009D01*
X183911027Y-91877580D02*
X183911027Y-92544247D01*
X183911027Y-92877580D02*
X183863408Y-92829961D01*
X183863408Y-92829961D02*
X183911027Y-92782342D01*
X183911027Y-92782342D02*
X183958646Y-92829961D01*
X183958646Y-92829961D02*
X183911027Y-92877580D01*
X183911027Y-92877580D02*
X183911027Y-92782342D01*
X184244360Y-92544247D02*
X184625312Y-92544247D01*
X184387217Y-92877580D02*
X184387217Y-92020438D01*
X184387217Y-92020438D02*
X184434836Y-91925200D01*
X184434836Y-91925200D02*
X184530074Y-91877580D01*
X184530074Y-91877580D02*
X184625312Y-91877580D01*
X185006265Y-91877580D02*
X185196741Y-91877580D01*
X185196741Y-91877580D02*
X185291979Y-91925200D01*
X185291979Y-91925200D02*
X185339598Y-91972819D01*
X185339598Y-91972819D02*
X185434836Y-92115676D01*
X185434836Y-92115676D02*
X185482455Y-92306152D01*
X185482455Y-92306152D02*
X185482455Y-92687104D01*
X185482455Y-92687104D02*
X185434836Y-92782342D01*
X185434836Y-92782342D02*
X185387217Y-92829961D01*
X185387217Y-92829961D02*
X185291979Y-92877580D01*
X185291979Y-92877580D02*
X185101503Y-92877580D01*
X185101503Y-92877580D02*
X185006265Y-92829961D01*
X185006265Y-92829961D02*
X184958646Y-92782342D01*
X184958646Y-92782342D02*
X184911027Y-92687104D01*
X184911027Y-92687104D02*
X184911027Y-92449009D01*
X184911027Y-92449009D02*
X184958646Y-92353771D01*
X184958646Y-92353771D02*
X185006265Y-92306152D01*
X185006265Y-92306152D02*
X185101503Y-92258533D01*
X185101503Y-92258533D02*
X185291979Y-92258533D01*
X185291979Y-92258533D02*
X185387217Y-92306152D01*
X185387217Y-92306152D02*
X185434836Y-92353771D01*
X185434836Y-92353771D02*
X185482455Y-92449009D01*
X185863408Y-92782342D02*
X185911027Y-92829961D01*
X185911027Y-92829961D02*
X186006265Y-92877580D01*
X186006265Y-92877580D02*
X186244360Y-92877580D01*
X186244360Y-92877580D02*
X186339598Y-92829961D01*
X186339598Y-92829961D02*
X186387217Y-92782342D01*
X186387217Y-92782342D02*
X186434836Y-92687104D01*
X186434836Y-92687104D02*
X186434836Y-92591866D01*
X186434836Y-92591866D02*
X186387217Y-92449009D01*
X186387217Y-92449009D02*
X185815789Y-91877580D01*
X185815789Y-91877580D02*
X186434836Y-91877580D01*
X146458020Y-104988133D02*
X144934211Y-104988133D01*
D10*
X156441573Y-104986833D02*
X154917764Y-104986833D01*
X155679668Y-105748738D02*
X155679668Y-104224928D01*
D12*
%TO.C,G\u002A\u002A\u002A*%
G36*
X172084657Y-96085155D02*
G01*
X172143968Y-96085236D01*
X172204806Y-96085389D01*
X172265905Y-96085609D01*
X172326000Y-96085888D01*
X172383826Y-96086220D01*
X172438118Y-96086600D01*
X172487611Y-96087021D01*
X172531039Y-96087477D01*
X172567138Y-96087961D01*
X172594642Y-96088467D01*
X172612286Y-96088989D01*
X172618805Y-96089521D01*
X172618912Y-96090354D01*
X172619232Y-96100777D01*
X172619567Y-96122444D01*
X172619909Y-96154502D01*
X172620255Y-96196096D01*
X172620600Y-96246375D01*
X172620937Y-96304484D01*
X172621262Y-96369571D01*
X172621571Y-96440782D01*
X172621857Y-96517264D01*
X172622116Y-96598164D01*
X172622343Y-96682628D01*
X172623780Y-97273634D01*
X172767817Y-97275297D01*
X172911853Y-97276960D01*
X172911853Y-97128163D01*
X172911853Y-96979366D01*
X173060536Y-96979366D01*
X173209219Y-96979366D01*
X173209219Y-96833781D01*
X173209219Y-96688195D01*
X173060536Y-96688195D01*
X172911853Y-96688195D01*
X172911853Y-96387732D01*
X172911853Y-96087268D01*
X173063522Y-96087268D01*
X173215190Y-96087268D01*
X173216851Y-96234403D01*
X173218512Y-96381537D01*
X173362549Y-96383200D01*
X173506585Y-96384863D01*
X173506585Y-96236276D01*
X173506585Y-96087690D01*
X173656817Y-96085931D01*
X173659113Y-96085904D01*
X173714065Y-96085454D01*
X173776267Y-96085231D01*
X173840810Y-96085237D01*
X173902785Y-96085472D01*
X173957280Y-96085934D01*
X174107512Y-96087698D01*
X174107512Y-96239263D01*
X174107512Y-96390829D01*
X173810032Y-96390829D01*
X173512552Y-96390829D01*
X173514215Y-96534866D01*
X173515878Y-96678903D01*
X174254646Y-96680325D01*
X174993414Y-96681747D01*
X174993414Y-96533190D01*
X174993414Y-96384634D01*
X175145083Y-96384634D01*
X175296751Y-96384634D01*
X175298412Y-96531768D01*
X175300073Y-96678903D01*
X175593789Y-96680416D01*
X175652570Y-96680755D01*
X175707773Y-96681144D01*
X175757872Y-96681568D01*
X175801653Y-96682012D01*
X175837901Y-96682465D01*
X175865403Y-96682911D01*
X175882943Y-96683338D01*
X175889308Y-96683731D01*
X175889848Y-96689787D01*
X175890367Y-96707255D01*
X175890830Y-96735083D01*
X175891233Y-96772232D01*
X175891568Y-96817663D01*
X175891829Y-96870338D01*
X175892011Y-96929217D01*
X175892106Y-96993262D01*
X175892109Y-97061435D01*
X175892013Y-97132695D01*
X175891707Y-97282927D01*
X175739927Y-97282927D01*
X175588146Y-97282927D01*
X175588146Y-97134244D01*
X175588146Y-96985561D01*
X175439463Y-96985561D01*
X175290780Y-96985561D01*
X175290780Y-96836878D01*
X175290780Y-96688195D01*
X175145231Y-96688195D01*
X174999682Y-96688195D01*
X175001195Y-96980915D01*
X175002707Y-97273634D01*
X175149841Y-97275295D01*
X175296975Y-97276956D01*
X175297230Y-97423978D01*
X175297232Y-97425339D01*
X175297381Y-97479243D01*
X175297636Y-97540515D01*
X175297971Y-97604269D01*
X175298360Y-97665620D01*
X175298779Y-97719683D01*
X175300073Y-97868366D01*
X175444110Y-97870029D01*
X175588146Y-97871692D01*
X175588146Y-97722895D01*
X175588146Y-97574098D01*
X175739712Y-97574098D01*
X175891278Y-97574098D01*
X175893041Y-97724329D01*
X175893068Y-97726625D01*
X175893520Y-97781577D01*
X175893743Y-97843780D01*
X175893739Y-97908323D01*
X175893506Y-97970297D01*
X175893045Y-98024793D01*
X175891285Y-98175025D01*
X175591033Y-98175025D01*
X175290780Y-98175025D01*
X175290780Y-98026342D01*
X175290780Y-97877659D01*
X175145231Y-97877659D01*
X174999682Y-97877659D01*
X175001195Y-98170378D01*
X175002707Y-98463098D01*
X175151390Y-98464392D01*
X175152740Y-98464404D01*
X175207082Y-98464822D01*
X175268588Y-98465210D01*
X175332370Y-98465543D01*
X175393539Y-98465795D01*
X175447207Y-98465941D01*
X175594341Y-98466195D01*
X175594341Y-98617976D01*
X175594341Y-98769756D01*
X175445544Y-98769756D01*
X175296747Y-98769756D01*
X175298410Y-98913793D01*
X175300073Y-99057829D01*
X175447095Y-99059490D01*
X175594118Y-99061151D01*
X175595778Y-99208173D01*
X175597439Y-99355195D01*
X175741475Y-99356858D01*
X175885512Y-99358521D01*
X175885512Y-99067122D01*
X176188845Y-99067122D01*
X176190508Y-99211159D01*
X176192171Y-99355195D01*
X176339193Y-99356856D01*
X176486215Y-99358517D01*
X176487876Y-99505539D01*
X176489536Y-99652561D01*
X176636559Y-99654222D01*
X176783581Y-99655882D01*
X176785242Y-99802905D01*
X176786902Y-99949927D01*
X176933925Y-99951588D01*
X177080947Y-99953248D01*
X177082607Y-100100271D01*
X177084268Y-100247293D01*
X177231402Y-100248954D01*
X177378536Y-100250615D01*
X177378791Y-100397637D01*
X177378793Y-100398998D01*
X177378942Y-100452902D01*
X177379197Y-100514174D01*
X177379532Y-100577927D01*
X177379921Y-100639278D01*
X177380340Y-100693342D01*
X177381634Y-100842025D01*
X177674353Y-100843537D01*
X177967073Y-100845049D01*
X177967073Y-100547720D01*
X177967073Y-100250390D01*
X178115756Y-100250390D01*
X178264439Y-100250390D01*
X178264439Y-100101708D01*
X178264439Y-99953025D01*
X178413122Y-99953025D01*
X178561805Y-99953025D01*
X178561805Y-99510073D01*
X178561805Y-99067122D01*
X178415929Y-99067122D01*
X178270053Y-99067122D01*
X178270649Y-99214256D01*
X178270661Y-99217200D01*
X178270828Y-99271161D01*
X178270945Y-99332402D01*
X178271005Y-99396104D01*
X178271005Y-99457450D01*
X178270940Y-99511622D01*
X178270634Y-99661854D01*
X178121951Y-99661854D01*
X177973268Y-99661854D01*
X177973268Y-99810537D01*
X177973268Y-99959220D01*
X177821488Y-99959220D01*
X177669707Y-99959220D01*
X177669707Y-99807439D01*
X177669707Y-99655659D01*
X177818390Y-99655659D01*
X177967073Y-99655659D01*
X177967073Y-99361390D01*
X177967073Y-99067122D01*
X177821488Y-99067122D01*
X177675902Y-99067122D01*
X177675902Y-99215805D01*
X177675902Y-99364488D01*
X177527219Y-99364488D01*
X177378536Y-99364488D01*
X177378536Y-99513171D01*
X177378536Y-99661854D01*
X177226756Y-99661854D01*
X177074975Y-99661854D01*
X177074975Y-99513171D01*
X177074975Y-99364488D01*
X176926292Y-99364488D01*
X176777610Y-99364488D01*
X176777610Y-99215805D01*
X176777610Y-99067122D01*
X176483227Y-99067122D01*
X176188845Y-99067122D01*
X175885512Y-99067122D01*
X175885512Y-99061041D01*
X175885512Y-98763561D01*
X176035744Y-98763256D01*
X176038748Y-98763250D01*
X176093496Y-98763188D01*
X176155123Y-98763192D01*
X176218813Y-98763256D01*
X176279747Y-98763376D01*
X176333110Y-98763546D01*
X176480244Y-98764142D01*
X176480244Y-98469583D01*
X176480244Y-98175025D01*
X176331561Y-98175025D01*
X176182878Y-98175025D01*
X176182878Y-97874561D01*
X176182878Y-97580293D01*
X176783978Y-97580293D01*
X176785440Y-98021695D01*
X176786902Y-98463098D01*
X177228305Y-98464560D01*
X177669707Y-98466022D01*
X177669707Y-98023157D01*
X177669707Y-97877659D01*
X178270406Y-97877659D01*
X178272069Y-98021695D01*
X178273732Y-98165732D01*
X178417768Y-98167395D01*
X178561805Y-98169058D01*
X178561805Y-98023358D01*
X178561805Y-97877659D01*
X178416105Y-97877659D01*
X178270406Y-97877659D01*
X177669707Y-97877659D01*
X177669707Y-97580293D01*
X177226843Y-97580293D01*
X176783978Y-97580293D01*
X176182878Y-97580293D01*
X176182878Y-97574098D01*
X176331561Y-97574098D01*
X176480244Y-97574098D01*
X176480244Y-97425415D01*
X176480244Y-97276732D01*
X176628927Y-97276732D01*
X176777610Y-97276732D01*
X176777610Y-97128049D01*
X176777610Y-96985561D01*
X177080942Y-96985561D01*
X177082605Y-97129598D01*
X177084268Y-97273634D01*
X177228305Y-97275297D01*
X177372341Y-97276960D01*
X177372341Y-97131261D01*
X177372341Y-96985561D01*
X177973341Y-96985561D01*
X177974853Y-97278281D01*
X177976366Y-97571000D01*
X178417768Y-97572462D01*
X178859171Y-97573924D01*
X178859171Y-97428426D01*
X178859171Y-97282927D01*
X178710488Y-97282927D01*
X178561805Y-97282927D01*
X178561805Y-97134244D01*
X178561805Y-96985561D01*
X178267573Y-96985561D01*
X177973341Y-96985561D01*
X177372341Y-96985561D01*
X177226642Y-96985561D01*
X177080942Y-96985561D01*
X176777610Y-96985561D01*
X176777610Y-96979366D01*
X176926292Y-96979366D01*
X177074975Y-96979366D01*
X177074975Y-96830683D01*
X177074975Y-96682000D01*
X177223658Y-96682000D01*
X177372341Y-96682000D01*
X177372341Y-96533317D01*
X177372341Y-96384634D01*
X177524122Y-96384634D01*
X177675902Y-96384634D01*
X177675902Y-96536415D01*
X177675902Y-96688195D01*
X177527105Y-96688195D01*
X177378308Y-96688195D01*
X177379971Y-96832232D01*
X177381634Y-96976268D01*
X177674353Y-96977781D01*
X177967073Y-96979293D01*
X177967073Y-96533281D01*
X177967073Y-96087268D01*
X178118741Y-96087268D01*
X178270410Y-96087268D01*
X178272071Y-96234403D01*
X178273732Y-96381537D01*
X178417768Y-96383200D01*
X178561805Y-96384863D01*
X178561805Y-96236066D01*
X178561805Y-96087268D01*
X178713585Y-96087268D01*
X178865366Y-96087268D01*
X178865366Y-96239049D01*
X178865366Y-96390829D01*
X178716719Y-96390829D01*
X178568073Y-96390829D01*
X178569585Y-96683549D01*
X178571097Y-96976268D01*
X178718120Y-96977929D01*
X178865142Y-96979590D01*
X178866803Y-97126612D01*
X178868463Y-97273634D01*
X179015383Y-97275295D01*
X179162303Y-97276955D01*
X179164066Y-97427075D01*
X179164093Y-97429396D01*
X179164545Y-97484312D01*
X179164768Y-97546479D01*
X179164763Y-97610992D01*
X179164531Y-97672943D01*
X179164069Y-97727427D01*
X179162310Y-97877659D01*
X179013724Y-97877659D01*
X178865137Y-97877659D01*
X178866800Y-98021695D01*
X178868463Y-98165732D01*
X179015383Y-98167392D01*
X179162303Y-98169053D01*
X179164066Y-98319173D01*
X179164093Y-98321493D01*
X179164545Y-98376409D01*
X179164768Y-98438577D01*
X179164763Y-98503089D01*
X179164531Y-98565041D01*
X179164069Y-98619525D01*
X179162310Y-98769756D01*
X179010740Y-98769756D01*
X178859171Y-98769756D01*
X178859171Y-98472390D01*
X178859171Y-98175025D01*
X178713585Y-98175025D01*
X178568000Y-98175025D01*
X178568000Y-98323708D01*
X178568000Y-98472390D01*
X178270520Y-98472390D01*
X177973040Y-98472390D01*
X177974703Y-98616427D01*
X177976366Y-98760464D01*
X178125049Y-98761758D01*
X178126425Y-98761770D01*
X178180760Y-98762188D01*
X178242245Y-98762576D01*
X178305996Y-98762909D01*
X178367127Y-98763161D01*
X178420754Y-98763307D01*
X178567776Y-98763561D01*
X178569436Y-98910695D01*
X178571097Y-99057829D01*
X178718120Y-99059490D01*
X178865142Y-99061151D01*
X178866803Y-99208173D01*
X178868463Y-99355195D01*
X179015597Y-99356856D01*
X179162732Y-99358517D01*
X179162732Y-99510186D01*
X179162732Y-99661854D01*
X179014049Y-99661854D01*
X178865366Y-99661854D01*
X178865366Y-99810537D01*
X178865366Y-99959220D01*
X178716569Y-99959220D01*
X178567771Y-99959220D01*
X178569434Y-100103256D01*
X178571097Y-100247293D01*
X178718120Y-100248954D01*
X178865142Y-100250614D01*
X178866803Y-100397636D01*
X178868463Y-100544659D01*
X179015597Y-100546320D01*
X179162732Y-100547981D01*
X179162732Y-100699649D01*
X179162732Y-100851317D01*
X179014049Y-100851317D01*
X178865366Y-100851317D01*
X178865366Y-101000000D01*
X178865366Y-101148683D01*
X178716569Y-101148683D01*
X178567771Y-101148683D01*
X178569434Y-101292720D01*
X178571097Y-101436756D01*
X178718120Y-101438417D01*
X178865142Y-101440078D01*
X178866803Y-101587100D01*
X178868463Y-101734122D01*
X179015597Y-101735783D01*
X179162731Y-101737444D01*
X179162732Y-101889112D01*
X179162732Y-102040781D01*
X178862268Y-102040781D01*
X178561805Y-102040781D01*
X178561805Y-101743415D01*
X178561805Y-101446049D01*
X178413122Y-101446049D01*
X178264439Y-101446049D01*
X178264439Y-101294268D01*
X178264439Y-101142488D01*
X178413122Y-101142488D01*
X178561805Y-101142488D01*
X178561805Y-100699537D01*
X178561805Y-100256586D01*
X178415929Y-100256586D01*
X178270053Y-100256586D01*
X178270649Y-100403720D01*
X178270661Y-100406664D01*
X178270828Y-100460625D01*
X178270945Y-100521865D01*
X178271005Y-100585567D01*
X178271005Y-100646913D01*
X178270940Y-100701086D01*
X178270634Y-100851317D01*
X178121951Y-100851317D01*
X177973268Y-100851317D01*
X177973268Y-101000000D01*
X177973268Y-101148683D01*
X177824471Y-101148683D01*
X177675674Y-101148683D01*
X177677337Y-101292720D01*
X177679000Y-101436756D01*
X177826134Y-101438417D01*
X177973268Y-101440078D01*
X177973268Y-101591746D01*
X177973268Y-101743415D01*
X177824471Y-101743415D01*
X177675674Y-101743415D01*
X177677337Y-101887451D01*
X177679000Y-102031488D01*
X177827683Y-102032782D01*
X177829059Y-102032794D01*
X177883394Y-102033212D01*
X177944879Y-102033601D01*
X178008630Y-102033934D01*
X178069761Y-102034186D01*
X178123388Y-102034331D01*
X178270410Y-102034586D01*
X178272071Y-102181720D01*
X178273732Y-102328854D01*
X178420754Y-102330515D01*
X178567776Y-102332175D01*
X178569437Y-102479197D01*
X178571097Y-102626220D01*
X178718120Y-102627880D01*
X178865142Y-102629541D01*
X178866803Y-102776563D01*
X178868463Y-102923586D01*
X179015597Y-102925246D01*
X179162731Y-102926907D01*
X179162732Y-103078576D01*
X179162732Y-103230244D01*
X179014049Y-103230244D01*
X178865366Y-103230244D01*
X178865366Y-103378927D01*
X178865366Y-103527610D01*
X178713585Y-103527610D01*
X178561805Y-103527610D01*
X178561805Y-103378927D01*
X178561805Y-103230244D01*
X178416219Y-103230244D01*
X178270634Y-103230244D01*
X178270634Y-103378927D01*
X178270634Y-103527610D01*
X178118853Y-103527610D01*
X177967073Y-103527610D01*
X177967073Y-103375829D01*
X177967073Y-103224049D01*
X178115756Y-103224049D01*
X178264439Y-103224049D01*
X178264439Y-103078464D01*
X178264439Y-102932878D01*
X177821373Y-102932878D01*
X177378308Y-102932878D01*
X177379971Y-103076915D01*
X177381634Y-103220951D01*
X177528768Y-103222612D01*
X177675902Y-103224273D01*
X177675902Y-103375942D01*
X177675902Y-103527610D01*
X177524122Y-103527610D01*
X177372341Y-103527610D01*
X177372341Y-103378927D01*
X177372341Y-103230244D01*
X177226756Y-103230244D01*
X177081171Y-103230244D01*
X177081171Y-103378927D01*
X177081171Y-103527610D01*
X176932197Y-103527610D01*
X176783224Y-103527610D01*
X176783820Y-103674744D01*
X176783831Y-103677688D01*
X176783999Y-103731649D01*
X176784115Y-103792889D01*
X176784176Y-103856591D01*
X176784176Y-103917937D01*
X176784110Y-103972110D01*
X176783805Y-104122342D01*
X176632024Y-104122342D01*
X176480244Y-104122342D01*
X176480244Y-103824976D01*
X176480244Y-103527610D01*
X176334745Y-103527610D01*
X176189247Y-103527610D01*
X176190709Y-103969012D01*
X176192171Y-104410415D01*
X176340853Y-104411709D01*
X176342203Y-104411721D01*
X176396545Y-104412139D01*
X176458051Y-104412527D01*
X176521833Y-104412860D01*
X176583002Y-104413112D01*
X176636671Y-104413258D01*
X176783805Y-104413512D01*
X176783805Y-104565293D01*
X176783805Y-104717073D01*
X176486325Y-104717073D01*
X176188845Y-104717073D01*
X176190508Y-104861110D01*
X176192171Y-105005147D01*
X176485887Y-105006660D01*
X176544637Y-105007003D01*
X176599860Y-105007406D01*
X176649988Y-105007851D01*
X176693804Y-105008324D01*
X176730092Y-105008811D01*
X176757638Y-105009296D01*
X176775224Y-105009766D01*
X176781636Y-105010206D01*
X176782017Y-105015762D01*
X176782403Y-105032950D01*
X176782757Y-105060957D01*
X176783078Y-105098967D01*
X176783362Y-105146161D01*
X176783607Y-105201723D01*
X176783811Y-105264835D01*
X176783971Y-105334681D01*
X176784084Y-105410442D01*
X176784147Y-105491303D01*
X176784159Y-105576445D01*
X176784116Y-105665051D01*
X176784016Y-105756305D01*
X176783805Y-105906537D01*
X176483341Y-105906537D01*
X176182878Y-105906537D01*
X176182878Y-105754756D01*
X176182878Y-105602976D01*
X176331561Y-105602976D01*
X176480244Y-105602976D01*
X176480244Y-105457390D01*
X176480244Y-105311805D01*
X176331561Y-105311805D01*
X176182878Y-105311805D01*
X176182878Y-105163122D01*
X176182878Y-105014439D01*
X176037227Y-105014439D01*
X175891576Y-105014439D01*
X175891852Y-105310256D01*
X175891884Y-105347112D01*
X175891931Y-105414582D01*
X175891964Y-105482657D01*
X175891983Y-105549171D01*
X175891989Y-105611959D01*
X175891980Y-105668855D01*
X175891957Y-105717692D01*
X175891918Y-105756305D01*
X175891707Y-105906537D01*
X174847829Y-105906537D01*
X173803951Y-105906537D01*
X173803951Y-105754756D01*
X173803951Y-105602976D01*
X173954183Y-105602670D01*
X173957187Y-105602664D01*
X174011935Y-105602603D01*
X174073562Y-105602607D01*
X174137252Y-105602671D01*
X174198186Y-105602790D01*
X174251549Y-105602961D01*
X174398683Y-105603557D01*
X174398683Y-105457681D01*
X174398683Y-105311805D01*
X174999381Y-105311805D01*
X175001044Y-105455842D01*
X175002707Y-105599878D01*
X175146744Y-105601541D01*
X175290780Y-105603204D01*
X175290780Y-105457505D01*
X175290780Y-105311805D01*
X175145081Y-105311805D01*
X174999381Y-105311805D01*
X174398683Y-105311805D01*
X174250000Y-105311805D01*
X174101317Y-105311805D01*
X174101317Y-105014439D01*
X174101317Y-104717073D01*
X174404951Y-104717073D01*
X174406463Y-105009793D01*
X174407975Y-105302512D01*
X174700695Y-105304025D01*
X174993414Y-105305537D01*
X174993414Y-105011305D01*
X174993414Y-104717073D01*
X175297048Y-104717073D01*
X175298561Y-105009793D01*
X175300073Y-105302512D01*
X175444110Y-105304175D01*
X175588146Y-105305838D01*
X175588146Y-105011456D01*
X175588146Y-104717073D01*
X175442597Y-104717073D01*
X175297048Y-104717073D01*
X174993414Y-104717073D01*
X174699183Y-104717073D01*
X174404951Y-104717073D01*
X174101317Y-104717073D01*
X173509719Y-104717073D01*
X172918121Y-104717073D01*
X172919634Y-105009793D01*
X172921146Y-105302512D01*
X173068280Y-105304173D01*
X173215414Y-105305834D01*
X173215414Y-105457503D01*
X173215414Y-105609171D01*
X172914951Y-105609171D01*
X172614488Y-105609171D01*
X172614488Y-105460488D01*
X172614488Y-105311805D01*
X172468612Y-105311805D01*
X172322736Y-105311805D01*
X172323332Y-105458939D01*
X172323344Y-105461883D01*
X172323511Y-105515844D01*
X172323628Y-105577085D01*
X172323688Y-105640787D01*
X172323688Y-105702133D01*
X172323622Y-105756305D01*
X172323317Y-105906537D01*
X172171536Y-105906537D01*
X172019756Y-105906537D01*
X172019756Y-105757854D01*
X172019756Y-105609171D01*
X171871073Y-105609171D01*
X171722390Y-105609171D01*
X171722390Y-105457390D01*
X171722390Y-105305610D01*
X171871073Y-105305610D01*
X172019756Y-105305610D01*
X172019756Y-105160025D01*
X172019756Y-105014439D01*
X171871073Y-105014439D01*
X171722390Y-105014439D01*
X171722390Y-104862659D01*
X171722390Y-104717073D01*
X172323089Y-104717073D01*
X172324751Y-104861110D01*
X172326414Y-105005147D01*
X172470451Y-105006810D01*
X172614488Y-105008472D01*
X172614488Y-104862773D01*
X172614488Y-104717073D01*
X172468788Y-104717073D01*
X172323089Y-104717073D01*
X171722390Y-104717073D01*
X171722390Y-104710878D01*
X171872622Y-104710573D01*
X171875627Y-104710567D01*
X171930374Y-104710505D01*
X171992001Y-104710509D01*
X172055691Y-104710573D01*
X172116625Y-104710693D01*
X172169988Y-104710863D01*
X172317122Y-104711459D01*
X172317122Y-104265120D01*
X172317122Y-103818781D01*
X172468902Y-103818781D01*
X172620683Y-103818781D01*
X172620866Y-103965915D01*
X172620900Y-103987032D01*
X172621003Y-104031194D01*
X172621156Y-104084349D01*
X172621352Y-104144364D01*
X172621583Y-104209110D01*
X172621842Y-104276454D01*
X172622122Y-104344266D01*
X172622414Y-104410415D01*
X172623780Y-104707781D01*
X172767817Y-104709444D01*
X172911853Y-104711107D01*
X172911853Y-104562310D01*
X172911853Y-104419708D01*
X174107284Y-104419708D01*
X174108947Y-104563744D01*
X174110610Y-104707781D01*
X174254646Y-104709444D01*
X174398683Y-104711107D01*
X174398683Y-104565407D01*
X174398683Y-104419708D01*
X175891479Y-104419708D01*
X175893142Y-104563744D01*
X175894805Y-104707781D01*
X176038841Y-104709444D01*
X176182878Y-104711107D01*
X176182878Y-104565407D01*
X176182878Y-104419708D01*
X176037178Y-104419708D01*
X175891479Y-104419708D01*
X174398683Y-104419708D01*
X174252983Y-104419708D01*
X174107284Y-104419708D01*
X172911853Y-104419708D01*
X172911853Y-104413512D01*
X173060536Y-104413512D01*
X173209219Y-104413512D01*
X173209219Y-104267927D01*
X173209219Y-104122342D01*
X173060536Y-104122342D01*
X172911853Y-104122342D01*
X172911853Y-103824976D01*
X173215186Y-103824976D01*
X173216849Y-103969012D01*
X173218512Y-104113049D01*
X173362549Y-104114712D01*
X173506585Y-104116375D01*
X173506585Y-103970675D01*
X173506585Y-103824976D01*
X173809918Y-103824976D01*
X173811581Y-103969012D01*
X173813244Y-104113049D01*
X173957280Y-104114712D01*
X174101317Y-104116375D01*
X174101317Y-103970675D01*
X174101317Y-103824976D01*
X173955617Y-103824976D01*
X173809918Y-103824976D01*
X173506585Y-103824976D01*
X173360886Y-103824976D01*
X173215186Y-103824976D01*
X172911853Y-103824976D01*
X172911853Y-103673195D01*
X172911853Y-103527610D01*
X173512552Y-103527610D01*
X173514215Y-103671647D01*
X173515878Y-103815683D01*
X173659914Y-103817346D01*
X173803951Y-103819009D01*
X173803951Y-103673310D01*
X173803951Y-103527610D01*
X173658251Y-103527610D01*
X173512552Y-103527610D01*
X172911853Y-103527610D01*
X172911853Y-103224049D01*
X173063522Y-103224049D01*
X173215190Y-103224049D01*
X173216851Y-103371183D01*
X173218512Y-103518317D01*
X173362549Y-103519980D01*
X173506585Y-103521643D01*
X173506585Y-103372846D01*
X173506585Y-103230244D01*
X174107585Y-103230244D01*
X174109097Y-103522964D01*
X174110610Y-103815683D01*
X174257632Y-103817344D01*
X174404654Y-103819004D01*
X174406315Y-103966027D01*
X174407975Y-104113049D01*
X174552012Y-104114712D01*
X174696049Y-104116375D01*
X174696049Y-103967578D01*
X174696049Y-103818781D01*
X174847829Y-103818781D01*
X174999610Y-103818781D01*
X174999864Y-103965915D01*
X174999867Y-103967251D01*
X175000015Y-104021191D01*
X175000270Y-104082498D01*
X175000605Y-104146282D01*
X175000994Y-104207657D01*
X175001413Y-104261732D01*
X175002707Y-104410415D01*
X175146744Y-104412078D01*
X175290780Y-104413741D01*
X175290780Y-104116261D01*
X175290780Y-103818781D01*
X175442561Y-103818781D01*
X175594341Y-103818781D01*
X175594596Y-103965915D01*
X175594598Y-103967251D01*
X175594747Y-104021191D01*
X175595002Y-104082498D01*
X175595336Y-104146282D01*
X175595726Y-104207657D01*
X175596145Y-104261732D01*
X175597439Y-104410415D01*
X175741475Y-104412078D01*
X175885512Y-104413741D01*
X175885512Y-103970675D01*
X175885512Y-103527610D01*
X175736829Y-103527610D01*
X175588146Y-103527610D01*
X175588146Y-103378927D01*
X175588146Y-103230244D01*
X175891479Y-103230244D01*
X175893142Y-103374281D01*
X175894805Y-103518317D01*
X176038841Y-103519980D01*
X176182878Y-103521643D01*
X176182878Y-103375944D01*
X176182878Y-103230244D01*
X176486210Y-103230244D01*
X176487873Y-103374281D01*
X176489536Y-103518317D01*
X176633573Y-103519980D01*
X176777610Y-103521643D01*
X176777610Y-103375944D01*
X176777610Y-103230244D01*
X176631910Y-103230244D01*
X176486210Y-103230244D01*
X176182878Y-103230244D01*
X176037178Y-103230244D01*
X175891479Y-103230244D01*
X175588146Y-103230244D01*
X175439463Y-103230244D01*
X175290780Y-103230244D01*
X175290780Y-103081561D01*
X175290780Y-102932878D01*
X175594113Y-102932878D01*
X175595776Y-103076915D01*
X175597439Y-103220951D01*
X175741475Y-103222614D01*
X175885512Y-103224277D01*
X175885512Y-103078578D01*
X175885512Y-102932878D01*
X175739812Y-102932878D01*
X175594113Y-102932878D01*
X175290780Y-102932878D01*
X174847715Y-102932878D01*
X174404649Y-102932878D01*
X174406312Y-103076915D01*
X174407975Y-103220951D01*
X174555110Y-103222612D01*
X174702244Y-103224273D01*
X174702244Y-103375942D01*
X174702244Y-103527610D01*
X174550463Y-103527610D01*
X174398683Y-103527610D01*
X174398683Y-103378927D01*
X174398683Y-103230244D01*
X174253134Y-103230244D01*
X174107585Y-103230244D01*
X173506585Y-103230244D01*
X173506585Y-103224049D01*
X173655268Y-103224049D01*
X173803951Y-103224049D01*
X173803951Y-103075366D01*
X173803951Y-102926683D01*
X173954183Y-102926378D01*
X173957187Y-102926372D01*
X174011935Y-102926310D01*
X174073562Y-102926314D01*
X174137252Y-102926378D01*
X174198186Y-102926498D01*
X174251549Y-102926668D01*
X174398683Y-102927264D01*
X174398683Y-102781388D01*
X174398683Y-102635512D01*
X174250000Y-102635512D01*
X174101317Y-102635512D01*
X174101317Y-102483732D01*
X174101317Y-102331951D01*
X174252985Y-102331951D01*
X174404654Y-102331951D01*
X174406314Y-102479086D01*
X174407975Y-102626220D01*
X174700695Y-102627732D01*
X174993414Y-102629245D01*
X174993414Y-102335013D01*
X174993414Y-102040781D01*
X174696049Y-102040781D01*
X174398683Y-102040781D01*
X174398683Y-101889000D01*
X174398683Y-101737220D01*
X174547366Y-101737220D01*
X174696049Y-101737220D01*
X174696049Y-101588537D01*
X174696049Y-101446049D01*
X174999381Y-101446049D01*
X175001044Y-101590086D01*
X175002707Y-101734122D01*
X175146744Y-101735785D01*
X175290780Y-101737448D01*
X175290780Y-101591749D01*
X175290780Y-101446049D01*
X175145081Y-101446049D01*
X174999381Y-101446049D01*
X174696049Y-101446049D01*
X174696049Y-101439854D01*
X174844732Y-101439854D01*
X174993414Y-101439854D01*
X174993414Y-101291171D01*
X174993414Y-101142488D01*
X175142097Y-101142488D01*
X175290780Y-101142488D01*
X175290780Y-100993805D01*
X175290780Y-100845122D01*
X175439463Y-100845122D01*
X175588146Y-100845122D01*
X175588146Y-100696439D01*
X175588146Y-100547756D01*
X175739927Y-100547756D01*
X175891707Y-100547756D01*
X175891707Y-100699537D01*
X175891707Y-100851317D01*
X175743024Y-100851317D01*
X175594341Y-100851317D01*
X175594341Y-101000000D01*
X175594341Y-101148683D01*
X175445544Y-101148683D01*
X175296747Y-101148683D01*
X175298410Y-101292720D01*
X175300073Y-101436756D01*
X175593789Y-101438269D01*
X175652570Y-101438608D01*
X175707773Y-101438997D01*
X175757872Y-101439421D01*
X175801653Y-101439866D01*
X175837901Y-101440318D01*
X175865403Y-101440765D01*
X175882943Y-101441191D01*
X175889308Y-101441584D01*
X175889848Y-101447640D01*
X175890367Y-101465109D01*
X175890830Y-101492937D01*
X175891233Y-101530086D01*
X175891568Y-101575517D01*
X175891829Y-101628192D01*
X175892011Y-101687071D01*
X175892106Y-101751116D01*
X175892109Y-101819288D01*
X175892013Y-101890549D01*
X175891707Y-102040781D01*
X175743024Y-102040781D01*
X175594341Y-102040781D01*
X175594341Y-102189464D01*
X175594341Y-102338147D01*
X175445544Y-102338147D01*
X175296747Y-102338147D01*
X175298410Y-102482183D01*
X175300073Y-102626220D01*
X175592792Y-102627732D01*
X175885512Y-102629245D01*
X175885512Y-102480598D01*
X175885512Y-102331951D01*
X176037292Y-102331951D01*
X176189073Y-102331951D01*
X176189328Y-102479086D01*
X176189330Y-102480421D01*
X176189479Y-102534362D01*
X176189733Y-102595669D01*
X176190068Y-102659453D01*
X176190458Y-102720827D01*
X176190876Y-102774903D01*
X176192171Y-102923586D01*
X176336207Y-102925249D01*
X176480244Y-102926911D01*
X176480244Y-102778114D01*
X176480244Y-102635512D01*
X176783877Y-102635512D01*
X176785390Y-102928232D01*
X176786902Y-103220951D01*
X176930939Y-103222614D01*
X177074975Y-103224277D01*
X177074975Y-103075480D01*
X177074975Y-102926683D01*
X177223658Y-102926683D01*
X177372341Y-102926683D01*
X177372341Y-102781098D01*
X177372341Y-102635512D01*
X178270406Y-102635512D01*
X178272069Y-102779549D01*
X178273732Y-102923586D01*
X178417768Y-102925249D01*
X178561805Y-102926911D01*
X178561805Y-102781212D01*
X178561805Y-102635512D01*
X178416105Y-102635512D01*
X178270406Y-102635512D01*
X177372341Y-102635512D01*
X177078109Y-102635512D01*
X176783877Y-102635512D01*
X176480244Y-102635512D01*
X176480244Y-102629317D01*
X176628927Y-102629317D01*
X176777610Y-102629317D01*
X176777610Y-102338147D01*
X177378308Y-102338147D01*
X177379971Y-102482183D01*
X177381634Y-102626220D01*
X177525671Y-102627883D01*
X177669707Y-102629546D01*
X177669707Y-102483846D01*
X177669707Y-102338147D01*
X177973040Y-102338147D01*
X177974703Y-102482183D01*
X177976366Y-102626220D01*
X178120402Y-102627883D01*
X178264439Y-102629546D01*
X178264439Y-102483846D01*
X178264439Y-102338147D01*
X178118739Y-102338147D01*
X177973040Y-102338147D01*
X177669707Y-102338147D01*
X177524008Y-102338147D01*
X177378308Y-102338147D01*
X176777610Y-102338147D01*
X176777610Y-102331951D01*
X176777610Y-102040781D01*
X177080942Y-102040781D01*
X177082605Y-102184817D01*
X177084268Y-102328854D01*
X177228305Y-102330517D01*
X177372341Y-102332180D01*
X177372341Y-102186480D01*
X177372341Y-102040781D01*
X177226642Y-102040781D01*
X177080942Y-102040781D01*
X176777610Y-102040781D01*
X176777610Y-102034586D01*
X176926292Y-102034586D01*
X177074975Y-102034586D01*
X177074975Y-101889000D01*
X177074975Y-101743415D01*
X176926292Y-101743415D01*
X176777610Y-101743415D01*
X176777610Y-101594732D01*
X176777610Y-101446049D01*
X176628927Y-101446049D01*
X176480244Y-101446049D01*
X176480244Y-101297366D01*
X176480244Y-101148683D01*
X176331561Y-101148683D01*
X176182878Y-101148683D01*
X176182878Y-100851317D01*
X177080942Y-100851317D01*
X177082605Y-100995354D01*
X177084268Y-101139390D01*
X177228305Y-101141053D01*
X177372341Y-101142716D01*
X177372341Y-100997017D01*
X177372341Y-100851317D01*
X177226642Y-100851317D01*
X177080942Y-100851317D01*
X176182878Y-100851317D01*
X176182878Y-100848220D01*
X176182878Y-100553951D01*
X176486210Y-100553951D01*
X176487873Y-100697988D01*
X176489536Y-100842025D01*
X176782256Y-100843537D01*
X177074975Y-100845049D01*
X177074975Y-100699500D01*
X177074975Y-100553951D01*
X176780593Y-100553951D01*
X176486210Y-100553951D01*
X176182878Y-100553951D01*
X176182878Y-100547756D01*
X176331561Y-100547756D01*
X176480244Y-100547756D01*
X176480244Y-100253488D01*
X176480244Y-99959220D01*
X176331561Y-99959220D01*
X176182878Y-99959220D01*
X176182878Y-99661854D01*
X176182878Y-99364488D01*
X176037292Y-99364488D01*
X175891707Y-99364488D01*
X175891707Y-99513171D01*
X175891707Y-99661854D01*
X175739927Y-99661854D01*
X175588146Y-99661854D01*
X175588146Y-99513171D01*
X175588146Y-99364488D01*
X175442495Y-99364488D01*
X175296844Y-99364488D01*
X175297121Y-99660305D01*
X175297153Y-99697161D01*
X175297199Y-99764630D01*
X175297232Y-99832705D01*
X175297252Y-99899220D01*
X175297257Y-99962008D01*
X175297248Y-100018903D01*
X175297225Y-100067741D01*
X175297186Y-100106354D01*
X175296975Y-100256586D01*
X175148002Y-100256586D01*
X174999028Y-100256586D01*
X174999625Y-100403720D01*
X174999636Y-100406664D01*
X174999804Y-100460625D01*
X174999920Y-100521865D01*
X174999981Y-100585567D01*
X174999981Y-100646913D01*
X174999915Y-100701086D01*
X174999610Y-100851317D01*
X174850927Y-100851317D01*
X174702244Y-100851317D01*
X174702244Y-101000000D01*
X174702244Y-101148683D01*
X174404812Y-101148683D01*
X174107380Y-101148683D01*
X174107657Y-101444500D01*
X174107689Y-101481356D01*
X174107736Y-101548826D01*
X174107769Y-101616900D01*
X174107788Y-101683415D01*
X174107794Y-101746203D01*
X174107785Y-101803099D01*
X174107761Y-101851936D01*
X174107723Y-101890549D01*
X174107512Y-102040781D01*
X173512817Y-102040781D01*
X172918121Y-102040781D01*
X172919634Y-102333500D01*
X172921146Y-102626220D01*
X173068280Y-102627881D01*
X173215414Y-102629542D01*
X173215414Y-102781210D01*
X173215414Y-102932878D01*
X172914951Y-102932878D01*
X172614488Y-102932878D01*
X172614488Y-102784195D01*
X172614488Y-102635512D01*
X172468939Y-102635512D01*
X172323390Y-102635512D01*
X172324902Y-102928232D01*
X172326414Y-103220951D01*
X172473549Y-103222612D01*
X172620683Y-103224273D01*
X172620683Y-103375942D01*
X172620683Y-103527610D01*
X171874171Y-103527610D01*
X171127658Y-103527610D01*
X171127658Y-103375829D01*
X171127658Y-103224049D01*
X171276341Y-103224049D01*
X171425024Y-103224049D01*
X171425024Y-103078464D01*
X171425024Y-102932878D01*
X171130465Y-102932878D01*
X170835906Y-102932878D01*
X170836503Y-103080012D01*
X170836514Y-103082956D01*
X170836682Y-103136917D01*
X170836798Y-103198158D01*
X170836859Y-103261860D01*
X170836859Y-103323206D01*
X170836793Y-103377378D01*
X170836488Y-103527610D01*
X170089975Y-103527610D01*
X169343463Y-103527610D01*
X169343463Y-103227147D01*
X169343463Y-102932878D01*
X169646796Y-102932878D01*
X169648459Y-103076915D01*
X169650122Y-103220951D01*
X169942841Y-103222464D01*
X170235561Y-103223976D01*
X170235561Y-103078427D01*
X170235561Y-102932878D01*
X169941178Y-102932878D01*
X169646796Y-102932878D01*
X169343463Y-102932878D01*
X169343463Y-102926683D01*
X169492146Y-102926683D01*
X169640829Y-102926683D01*
X169640829Y-102778000D01*
X169640829Y-102629317D01*
X169789512Y-102629148D01*
X169796922Y-102629140D01*
X169851434Y-102629089D01*
X169912965Y-102629045D01*
X169976855Y-102629010D01*
X170038444Y-102628988D01*
X170093073Y-102628979D01*
X170101522Y-102628980D01*
X170157261Y-102628990D01*
X170218891Y-102629015D01*
X170281842Y-102629051D01*
X170341543Y-102629097D01*
X170393424Y-102629148D01*
X170538897Y-102629317D01*
X170540558Y-102776451D01*
X170542219Y-102923586D01*
X170686256Y-102925249D01*
X170830292Y-102926911D01*
X170830292Y-102629431D01*
X170830292Y-102338147D01*
X171133625Y-102338147D01*
X171135288Y-102482183D01*
X171136951Y-102626220D01*
X171283973Y-102627880D01*
X171430996Y-102629541D01*
X171432656Y-102776563D01*
X171434317Y-102923586D01*
X171578353Y-102925249D01*
X171722390Y-102926911D01*
X171722390Y-102632529D01*
X171722390Y-102338147D01*
X171428008Y-102338147D01*
X171133625Y-102338147D01*
X170830292Y-102338147D01*
X170830292Y-102331951D01*
X170978975Y-102331951D01*
X171127658Y-102331951D01*
X171127658Y-102183268D01*
X171127658Y-102040781D01*
X172323089Y-102040781D01*
X172324751Y-102184817D01*
X172326414Y-102328854D01*
X172470451Y-102330517D01*
X172614488Y-102332180D01*
X172614488Y-102186480D01*
X172614488Y-102040781D01*
X172468788Y-102040781D01*
X172323089Y-102040781D01*
X171127658Y-102040781D01*
X171127658Y-102034586D01*
X171277890Y-102034280D01*
X171280895Y-102034274D01*
X171335642Y-102034213D01*
X171397269Y-102034216D01*
X171460959Y-102034280D01*
X171521894Y-102034400D01*
X171575256Y-102034571D01*
X171722390Y-102035167D01*
X171722390Y-101886193D01*
X171722390Y-101737220D01*
X171871073Y-101737220D01*
X172019756Y-101737220D01*
X172019756Y-101591634D01*
X172019756Y-101446049D01*
X171871073Y-101446049D01*
X171722390Y-101446049D01*
X171722390Y-101297366D01*
X171722390Y-101148683D01*
X172025723Y-101148683D01*
X172027386Y-101292720D01*
X172029049Y-101436756D01*
X172173085Y-101438419D01*
X172317122Y-101440082D01*
X172317122Y-101294383D01*
X172317122Y-101148683D01*
X172171422Y-101148683D01*
X172025723Y-101148683D01*
X171722390Y-101148683D01*
X171428008Y-101148683D01*
X171133625Y-101148683D01*
X171135288Y-101292720D01*
X171136951Y-101436756D01*
X171284085Y-101438417D01*
X171431219Y-101440078D01*
X171431219Y-101591746D01*
X171431219Y-101743415D01*
X170982073Y-101743415D01*
X170532927Y-101743415D01*
X170532927Y-101594732D01*
X170532927Y-101446049D01*
X170387341Y-101446049D01*
X170241756Y-101446049D01*
X170241756Y-101594732D01*
X170241756Y-101743415D01*
X170093073Y-101743415D01*
X169944390Y-101743415D01*
X169944390Y-101892098D01*
X169944390Y-102040781D01*
X169643927Y-102040781D01*
X169343463Y-102040781D01*
X169343463Y-101889000D01*
X169343463Y-101737220D01*
X169493695Y-101736914D01*
X169496700Y-101736908D01*
X169551447Y-101736847D01*
X169613074Y-101736851D01*
X169676764Y-101736915D01*
X169737699Y-101737034D01*
X169791061Y-101737205D01*
X169938195Y-101737801D01*
X169938195Y-101591925D01*
X169938195Y-101446049D01*
X169640829Y-101446049D01*
X169343463Y-101446049D01*
X169343463Y-101145586D01*
X169343463Y-100851317D01*
X169646796Y-100851317D01*
X169648459Y-100995354D01*
X169650122Y-101139390D01*
X169942841Y-101140903D01*
X170235561Y-101142415D01*
X170235561Y-100996866D01*
X170235561Y-100851317D01*
X170836259Y-100851317D01*
X170837922Y-100995354D01*
X170839585Y-101139390D01*
X170983622Y-101141053D01*
X171127658Y-101142716D01*
X171127658Y-100997017D01*
X171127658Y-100851317D01*
X172323089Y-100851317D01*
X172324751Y-100995354D01*
X172326414Y-101139390D01*
X172473549Y-101141051D01*
X172620683Y-101142712D01*
X172620866Y-101289734D01*
X172620900Y-101310850D01*
X172621003Y-101354991D01*
X172621156Y-101408124D01*
X172621352Y-101468120D01*
X172621583Y-101532847D01*
X172621842Y-101600177D01*
X172622122Y-101667979D01*
X172622414Y-101734122D01*
X172623780Y-102031488D01*
X172767817Y-102033151D01*
X172911853Y-102034814D01*
X172911853Y-101886017D01*
X172911853Y-101737220D01*
X173060536Y-101737220D01*
X173209219Y-101737220D01*
X173209219Y-101591634D01*
X173209219Y-101446049D01*
X173060536Y-101446049D01*
X172911853Y-101446049D01*
X172911853Y-101148683D01*
X173512552Y-101148683D01*
X173514215Y-101292720D01*
X173515878Y-101436756D01*
X173659914Y-101438419D01*
X173803951Y-101440082D01*
X173803951Y-101294383D01*
X173803951Y-101148683D01*
X173658251Y-101148683D01*
X173512552Y-101148683D01*
X172911853Y-101148683D01*
X172911853Y-101145586D01*
X172911853Y-100845122D01*
X173063522Y-100845122D01*
X173215190Y-100845122D01*
X173216851Y-100992256D01*
X173218512Y-101139390D01*
X173362549Y-101141053D01*
X173506585Y-101142716D01*
X173506585Y-100993919D01*
X173506585Y-100845122D01*
X173655268Y-100845122D01*
X173803951Y-100845122D01*
X173803951Y-100696439D01*
X173803951Y-100553951D01*
X174107284Y-100553951D01*
X174108947Y-100697988D01*
X174110610Y-100842025D01*
X174254646Y-100843688D01*
X174398683Y-100845351D01*
X174398683Y-100699651D01*
X174398683Y-100553951D01*
X174252983Y-100553951D01*
X174107284Y-100553951D01*
X173803951Y-100553951D01*
X173803951Y-100547756D01*
X173952634Y-100547756D01*
X174101317Y-100547756D01*
X174101317Y-100399073D01*
X174101317Y-100250390D01*
X174251549Y-100250085D01*
X174254553Y-100250079D01*
X174309300Y-100250018D01*
X174370928Y-100250021D01*
X174434617Y-100250085D01*
X174495552Y-100250205D01*
X174548914Y-100250375D01*
X174696049Y-100250972D01*
X174696049Y-100105096D01*
X174696049Y-99959220D01*
X174398683Y-99959220D01*
X174101317Y-99959220D01*
X174101317Y-99661854D01*
X174101317Y-99364488D01*
X173955732Y-99364488D01*
X173810146Y-99364488D01*
X173810146Y-99513171D01*
X173810146Y-99661854D01*
X173364134Y-99661854D01*
X172918121Y-99661854D01*
X172919634Y-99954573D01*
X172921146Y-100247293D01*
X173068280Y-100248954D01*
X173215414Y-100250615D01*
X173215414Y-100402283D01*
X173215414Y-100553951D01*
X172918049Y-100553951D01*
X172620683Y-100553951D01*
X172620683Y-100702634D01*
X172620683Y-100851317D01*
X172471886Y-100851317D01*
X172323089Y-100851317D01*
X171127658Y-100851317D01*
X170981959Y-100851317D01*
X170836259Y-100851317D01*
X170235561Y-100851317D01*
X169941178Y-100851317D01*
X169646796Y-100851317D01*
X169343463Y-100851317D01*
X169343463Y-100845122D01*
X169492146Y-100845122D01*
X169640829Y-100845122D01*
X169640829Y-100550854D01*
X169640829Y-100256586D01*
X169492146Y-100256586D01*
X169343463Y-100256586D01*
X169343463Y-99959220D01*
X169646796Y-99959220D01*
X169648459Y-100103256D01*
X169650122Y-100247293D01*
X169943838Y-100248806D01*
X170002574Y-100249151D01*
X170057807Y-100249560D01*
X170107948Y-100250015D01*
X170151779Y-100250501D01*
X170188085Y-100251003D01*
X170215650Y-100251506D01*
X170233257Y-100251995D01*
X170239691Y-100252455D01*
X170240148Y-100258814D01*
X170240638Y-100276356D01*
X170241141Y-100303864D01*
X170241643Y-100340120D01*
X170242129Y-100383909D01*
X170242584Y-100434014D01*
X170242993Y-100489219D01*
X170243340Y-100548308D01*
X170244853Y-100842025D01*
X170388890Y-100843688D01*
X170532927Y-100845351D01*
X170532927Y-100696553D01*
X170532927Y-100553951D01*
X171133625Y-100553951D01*
X171135288Y-100697988D01*
X171136951Y-100842025D01*
X171280988Y-100843688D01*
X171425024Y-100845351D01*
X171425024Y-100699651D01*
X171425024Y-100553951D01*
X171279325Y-100553951D01*
X171133625Y-100553951D01*
X170532927Y-100553951D01*
X170532927Y-100547756D01*
X170683158Y-100547451D01*
X170686163Y-100547445D01*
X170740910Y-100547383D01*
X170802537Y-100547387D01*
X170866227Y-100547451D01*
X170927162Y-100547571D01*
X170980524Y-100547741D01*
X171127658Y-100548337D01*
X171127658Y-100402462D01*
X171127658Y-100256586D01*
X172323089Y-100256586D01*
X172324751Y-100400622D01*
X172326414Y-100544659D01*
X172470451Y-100546322D01*
X172614488Y-100547985D01*
X172614488Y-100402285D01*
X172614488Y-100256586D01*
X172468788Y-100256586D01*
X172323089Y-100256586D01*
X171127658Y-100256586D01*
X170830292Y-100256586D01*
X170532927Y-100256586D01*
X170532927Y-100104805D01*
X170532927Y-99959220D01*
X171133625Y-99959220D01*
X171135288Y-100103256D01*
X171136951Y-100247293D01*
X171280988Y-100248956D01*
X171425024Y-100250619D01*
X171425024Y-100104919D01*
X171425024Y-99959220D01*
X171279325Y-99959220D01*
X171133625Y-99959220D01*
X170532927Y-99959220D01*
X170532927Y-99953025D01*
X170681610Y-99953025D01*
X170830292Y-99953025D01*
X170830292Y-99807439D01*
X170830292Y-99661854D01*
X171728658Y-99661854D01*
X171730170Y-99954573D01*
X171731683Y-100247293D01*
X171875719Y-100248956D01*
X172019756Y-100250619D01*
X172019756Y-99956236D01*
X172019756Y-99661854D01*
X172323089Y-99661854D01*
X172324751Y-99805890D01*
X172326414Y-99949927D01*
X172470451Y-99951590D01*
X172614488Y-99953253D01*
X172614488Y-99807553D01*
X172614488Y-99661854D01*
X172468788Y-99661854D01*
X172323089Y-99661854D01*
X172019756Y-99661854D01*
X171874207Y-99661854D01*
X171728658Y-99661854D01*
X170830292Y-99661854D01*
X170681610Y-99661854D01*
X170532927Y-99661854D01*
X170532927Y-99513171D01*
X170532927Y-99364488D01*
X171133625Y-99364488D01*
X171135288Y-99508525D01*
X171136951Y-99652561D01*
X171429671Y-99654074D01*
X171722390Y-99655586D01*
X171722390Y-99510037D01*
X171722390Y-99364488D01*
X171428008Y-99364488D01*
X171133625Y-99364488D01*
X170532927Y-99364488D01*
X170387341Y-99364488D01*
X170241756Y-99364488D01*
X170241756Y-99513171D01*
X170241756Y-99661854D01*
X170093073Y-99661854D01*
X169944390Y-99661854D01*
X169944390Y-99810537D01*
X169944390Y-99959220D01*
X169795593Y-99959220D01*
X169646796Y-99959220D01*
X169343463Y-99959220D01*
X169343463Y-99361390D01*
X169343463Y-98466195D01*
X169495244Y-98466195D01*
X169647024Y-98466195D01*
X169647207Y-98613329D01*
X169647241Y-98634447D01*
X169647344Y-98678609D01*
X169647497Y-98731763D01*
X169647693Y-98791779D01*
X169647924Y-98856524D01*
X169648184Y-98923869D01*
X169648463Y-98991681D01*
X169648756Y-99057829D01*
X169650122Y-99355195D01*
X169942841Y-99356708D01*
X170235561Y-99358220D01*
X170235561Y-99067122D01*
X170538893Y-99067122D01*
X170540556Y-99211159D01*
X170542219Y-99355195D01*
X170834939Y-99356708D01*
X171127658Y-99358220D01*
X171127658Y-99209574D01*
X171127658Y-99060927D01*
X171277890Y-99060621D01*
X171280895Y-99060615D01*
X171335642Y-99060554D01*
X171397269Y-99060558D01*
X171460959Y-99060622D01*
X171521894Y-99060741D01*
X171575256Y-99060912D01*
X171722390Y-99061508D01*
X171722390Y-98915632D01*
X171722390Y-98769756D01*
X171279439Y-98769756D01*
X170836488Y-98769756D01*
X170836488Y-98918439D01*
X170836488Y-99067122D01*
X170687690Y-99067122D01*
X170538893Y-99067122D01*
X170235561Y-99067122D01*
X170235561Y-98912208D01*
X170235561Y-98466195D01*
X170387229Y-98466195D01*
X170538897Y-98466195D01*
X170540558Y-98613329D01*
X170542219Y-98760464D01*
X170686256Y-98762127D01*
X170830292Y-98763790D01*
X170830292Y-98614992D01*
X170830292Y-98472390D01*
X171728357Y-98472390D01*
X171730020Y-98616427D01*
X171731683Y-98760464D01*
X171875719Y-98762127D01*
X172019756Y-98763790D01*
X172019756Y-98618090D01*
X172019756Y-98472390D01*
X171874056Y-98472390D01*
X171728357Y-98472390D01*
X170830292Y-98472390D01*
X170830292Y-98466195D01*
X170980524Y-98465984D01*
X171000848Y-98465961D01*
X171045476Y-98465931D01*
X171099111Y-98465916D01*
X171159586Y-98465915D01*
X171224736Y-98465928D01*
X171292394Y-98465956D01*
X171360395Y-98465996D01*
X171426573Y-98466050D01*
X171722390Y-98466327D01*
X171722390Y-98168895D01*
X171722390Y-97871464D01*
X171874058Y-97871464D01*
X172025727Y-97871464D01*
X172027388Y-98018598D01*
X172029049Y-98165732D01*
X172176071Y-98167393D01*
X172323093Y-98169053D01*
X172324754Y-98316075D01*
X172326414Y-98463098D01*
X172473549Y-98464759D01*
X172620683Y-98466420D01*
X172620683Y-98618088D01*
X172620683Y-98769756D01*
X172323353Y-98769756D01*
X172026024Y-98769756D01*
X172027536Y-99062476D01*
X172029049Y-99355195D01*
X172173085Y-99356858D01*
X172317122Y-99358521D01*
X172317122Y-99209724D01*
X172317122Y-99060927D01*
X172468902Y-99060927D01*
X172620683Y-99060927D01*
X172620937Y-99208061D01*
X172620940Y-99209397D01*
X172621088Y-99263337D01*
X172621343Y-99324644D01*
X172621678Y-99388429D01*
X172622067Y-99449803D01*
X172622486Y-99503878D01*
X172623780Y-99652561D01*
X172767817Y-99654224D01*
X172911853Y-99655887D01*
X172911853Y-99507090D01*
X172911853Y-99358293D01*
X173060536Y-99358293D01*
X173209219Y-99358293D01*
X173209219Y-99212708D01*
X173209219Y-99067122D01*
X174999381Y-99067122D01*
X175001044Y-99211159D01*
X175002707Y-99355195D01*
X175146744Y-99356858D01*
X175290780Y-99358521D01*
X175290780Y-99212822D01*
X175290780Y-99067122D01*
X175145081Y-99067122D01*
X174999381Y-99067122D01*
X173209219Y-99067122D01*
X173060536Y-99067122D01*
X172911853Y-99067122D01*
X172911853Y-98766659D01*
X172911853Y-98466195D01*
X173063522Y-98466195D01*
X173215190Y-98466195D01*
X173216851Y-98613329D01*
X173218512Y-98760464D01*
X173362549Y-98762127D01*
X173506585Y-98763790D01*
X173506585Y-98615203D01*
X173506585Y-98466617D01*
X173656817Y-98464857D01*
X173659113Y-98464831D01*
X173714065Y-98464380D01*
X173776267Y-98464158D01*
X173840810Y-98464164D01*
X173902785Y-98464399D01*
X173957280Y-98464861D01*
X174107512Y-98466624D01*
X174107512Y-98618190D01*
X174107512Y-98769756D01*
X173810032Y-98769756D01*
X173512552Y-98769756D01*
X173514215Y-98913793D01*
X173515878Y-99057829D01*
X174254646Y-99059251D01*
X174993414Y-99060673D01*
X174993414Y-98766532D01*
X174993414Y-98472390D01*
X174847829Y-98472390D01*
X174702244Y-98472390D01*
X174702244Y-98621073D01*
X174702244Y-98769756D01*
X174550463Y-98769756D01*
X174398683Y-98769756D01*
X174398683Y-98472390D01*
X174398683Y-98175025D01*
X174250000Y-98175025D01*
X174101317Y-98175025D01*
X174101317Y-98023244D01*
X174101317Y-97871464D01*
X174250000Y-97871464D01*
X174398683Y-97871464D01*
X174398683Y-97580293D01*
X174702015Y-97580293D01*
X174703678Y-97724329D01*
X174705341Y-97868366D01*
X174849378Y-97870029D01*
X174993414Y-97871692D01*
X174993414Y-97725992D01*
X174993414Y-97580293D01*
X174847715Y-97580293D01*
X174702015Y-97580293D01*
X174398683Y-97580293D01*
X174398683Y-97428512D01*
X174398683Y-96985561D01*
X174253097Y-96985561D01*
X174107512Y-96985561D01*
X174107512Y-97134244D01*
X174107512Y-97282927D01*
X173512817Y-97282927D01*
X172918121Y-97282927D01*
X172919634Y-97575647D01*
X172921146Y-97868366D01*
X173068280Y-97870027D01*
X173215414Y-97871688D01*
X173215414Y-98023356D01*
X173215414Y-98175025D01*
X172914951Y-98175025D01*
X172614488Y-98175025D01*
X172614488Y-98026342D01*
X172614488Y-97877659D01*
X172465805Y-97877659D01*
X172317122Y-97877659D01*
X172317122Y-97728976D01*
X172317122Y-97580293D01*
X172019756Y-97580293D01*
X171722390Y-97580293D01*
X171722390Y-96833891D01*
X171722390Y-96087489D01*
X171872622Y-96085830D01*
X171887980Y-96085679D01*
X171928534Y-96085408D01*
X171975675Y-96085235D01*
X172028137Y-96085152D01*
X172084657Y-96085155D01*
G37*
G36*
X176583435Y-96085212D02*
G01*
X176638219Y-96085556D01*
X176647007Y-96085633D01*
X176702629Y-96086059D01*
X176763983Y-96086442D01*
X176826539Y-96086760D01*
X176885766Y-96086989D01*
X176937134Y-96087105D01*
X177081171Y-96087268D01*
X177081171Y-96239049D01*
X177081171Y-96390829D01*
X176632024Y-96390829D01*
X176182878Y-96390829D01*
X176182878Y-96239159D01*
X176182878Y-96087489D01*
X176333110Y-96085830D01*
X176340255Y-96085754D01*
X176395251Y-96085339D01*
X176457248Y-96085107D01*
X176521544Y-96085063D01*
X176583435Y-96085212D01*
G37*
G36*
X174702244Y-96239049D02*
G01*
X174702244Y-96390829D01*
X174550463Y-96390829D01*
X174398683Y-96390829D01*
X174398683Y-96239049D01*
X174398683Y-96087268D01*
X174550463Y-96087268D01*
X174702244Y-96087268D01*
X174702244Y-96239049D01*
G37*
G36*
X171425024Y-97134244D02*
G01*
X171425024Y-98175025D01*
X170384244Y-98175025D01*
X169343463Y-98175025D01*
X169343463Y-97877659D01*
X169640829Y-97877659D01*
X170384244Y-97877659D01*
X171127658Y-97877659D01*
X171127658Y-97134244D01*
X171127658Y-96390829D01*
X170384244Y-96390829D01*
X169640829Y-96390829D01*
X169640829Y-97134244D01*
X169640829Y-97877659D01*
X169343463Y-97877659D01*
X169343463Y-97134244D01*
X169343463Y-96093464D01*
X170384244Y-96093464D01*
X171425024Y-96093464D01*
X171425024Y-97134244D01*
G37*
G36*
X176486439Y-96833781D02*
G01*
X176486439Y-96985561D01*
X176334658Y-96985561D01*
X176182878Y-96985561D01*
X176182878Y-96833781D01*
X176182878Y-96682000D01*
X176334658Y-96682000D01*
X176486439Y-96682000D01*
X176486439Y-96833781D01*
G37*
G36*
X173810146Y-97725878D02*
G01*
X173810146Y-97877659D01*
X173658366Y-97877659D01*
X173506585Y-97877659D01*
X173506585Y-97725878D01*
X173506585Y-97574098D01*
X173658366Y-97574098D01*
X173810146Y-97574098D01*
X173810146Y-97725878D01*
G37*
G36*
X175891707Y-100104805D02*
G01*
X175891707Y-100256586D01*
X175739927Y-100256586D01*
X175588146Y-100256586D01*
X175588146Y-100104805D01*
X175588146Y-99953025D01*
X175739927Y-99953025D01*
X175891707Y-99953025D01*
X175891707Y-100104805D01*
G37*
G36*
X176486439Y-101889000D02*
G01*
X176486439Y-102040781D01*
X176334658Y-102040781D01*
X176182878Y-102040781D01*
X176182878Y-101889000D01*
X176182878Y-101737220D01*
X176334658Y-101737220D01*
X176486439Y-101737220D01*
X176486439Y-101889000D01*
G37*
G36*
X170539122Y-102186366D02*
G01*
X170539122Y-102338147D01*
X170387341Y-102338147D01*
X170235561Y-102338147D01*
X170235561Y-102186366D01*
X170235561Y-102034586D01*
X170387341Y-102034586D01*
X170539122Y-102034586D01*
X170539122Y-102186366D01*
G37*
G36*
X173810146Y-102483732D02*
G01*
X173810146Y-102635512D01*
X173658366Y-102635512D01*
X173506585Y-102635512D01*
X173506585Y-102483732D01*
X173506585Y-102331951D01*
X173658366Y-102331951D01*
X173810146Y-102331951D01*
X173810146Y-102483732D01*
G37*
G36*
X172027285Y-103969012D02*
G01*
X172027312Y-103971308D01*
X172027764Y-104026260D01*
X172027987Y-104088463D01*
X172027983Y-104153006D01*
X172027750Y-104214980D01*
X172027289Y-104269476D01*
X172025529Y-104419708D01*
X171873960Y-104419708D01*
X171722390Y-104419708D01*
X171722390Y-104119244D01*
X171722390Y-103818781D01*
X171873956Y-103818781D01*
X172025522Y-103818781D01*
X172027285Y-103969012D01*
G37*
G36*
X171425024Y-104865756D02*
G01*
X171425024Y-105906537D01*
X170384244Y-105906537D01*
X169343463Y-105906537D01*
X169343463Y-105609171D01*
X169640829Y-105609171D01*
X170384244Y-105609171D01*
X171127658Y-105609171D01*
X171127658Y-104865756D01*
X171127658Y-104122342D01*
X170384244Y-104122342D01*
X169640829Y-104122342D01*
X169640829Y-104865756D01*
X169640829Y-105609171D01*
X169343463Y-105609171D01*
X169343463Y-104865756D01*
X169343463Y-103824976D01*
X170384244Y-103824976D01*
X171425024Y-103824976D01*
X171425024Y-104865756D01*
G37*
G36*
X179156536Y-104865756D02*
G01*
X179156536Y-105906537D01*
X178115756Y-105906537D01*
X177074975Y-105906537D01*
X177074975Y-105609171D01*
X177372341Y-105609171D01*
X178115756Y-105609171D01*
X178859171Y-105609171D01*
X178859171Y-104865756D01*
X178859171Y-104122342D01*
X178115756Y-104122342D01*
X177372341Y-104122342D01*
X177372341Y-104865756D01*
X177372341Y-105609171D01*
X177074975Y-105609171D01*
X177074975Y-104865756D01*
X177074975Y-103824976D01*
X178115756Y-103824976D01*
X179156536Y-103824976D01*
X179156536Y-104865756D01*
G37*
G36*
X173810146Y-105160025D02*
G01*
X173810146Y-105311805D01*
X173658366Y-105311805D01*
X173506585Y-105311805D01*
X173506585Y-105160025D01*
X173506585Y-105008244D01*
X173658366Y-105008244D01*
X173810146Y-105008244D01*
X173810146Y-105160025D01*
G37*
G36*
X177378536Y-98023244D02*
G01*
X177378536Y-98175025D01*
X177226756Y-98175025D01*
X177074975Y-98175025D01*
X177074975Y-98023244D01*
X177074975Y-97871464D01*
X177226756Y-97871464D01*
X177378536Y-97871464D01*
X177378536Y-98023244D01*
G37*
G36*
X173810146Y-100104805D02*
G01*
X173810146Y-100256586D01*
X173658366Y-100256586D01*
X173506585Y-100256586D01*
X173506585Y-100104805D01*
X173506585Y-99953025D01*
X173658366Y-99953025D01*
X173810146Y-99953025D01*
X173810146Y-100104805D01*
G37*
G36*
X170830292Y-97134244D02*
G01*
X170830292Y-97580293D01*
X170384244Y-97580293D01*
X169938195Y-97580293D01*
X169938195Y-97134244D01*
X169938195Y-96688195D01*
X170384244Y-96688195D01*
X170830292Y-96688195D01*
X170830292Y-97134244D01*
G37*
G36*
X170830292Y-104865756D02*
G01*
X170830292Y-105311805D01*
X170384244Y-105311805D01*
X169938195Y-105311805D01*
X169938195Y-104865756D01*
X169938195Y-104419708D01*
X170384244Y-104419708D01*
X170830292Y-104419708D01*
X170830292Y-104865756D01*
G37*
G36*
X178561805Y-104865756D02*
G01*
X178561805Y-105311805D01*
X178115756Y-105311805D01*
X177669707Y-105311805D01*
X177669707Y-104865756D01*
X177669707Y-104419708D01*
X178115756Y-104419708D01*
X178561805Y-104419708D01*
X178561805Y-104865756D01*
G37*
D13*
%TO.C,R6*%
X183153641Y-100620000D02*
X182846359Y-100620000D01*
X183153641Y-101380000D02*
X182846359Y-101380000D01*
%TD*%
%LPC*%
D14*
%TO.C,R6*%
X183510000Y-101000000D03*
X182490000Y-101000000D03*
%TD*%
D15*
%TO.C,H1*%
X166000000Y-101000000D03*
%TD*%
%LPD*%
M02*
