%TF.GenerationSoftware,KiCad,Pcbnew,9.0.4*%
%TF.CreationDate,2026-02-18T20:57:08-05:00*%
%TF.ProjectId,seeed_studio_GNSS,73656565-645f-4737-9475-64696f5f474e,rev?*%
%TF.SameCoordinates,Original*%
%TF.FileFunction,Copper,L2,Bot*%
%TF.FilePolarity,Positive*%
%FSLAX46Y46*%
G04 Gerber Fmt 4.6, Leading zero omitted, Abs format (unit mm)*
G04 Created by KiCad (PCBNEW 9.0.4) date 2026-02-18 20:57:08*
%MOMM*%
%LPD*%
G01*
G04 APERTURE LIST*
G04 Aperture macros list*
%AMRoundRect*
0 Rectangle with rounded corners*
0 $1 Rounding radius*
0 $2 $3 $4 $5 $6 $7 $8 $9 X,Y pos of 4 corners*
0 Add a 4 corners polygon primitive as box body*
4,1,4,$2,$3,$4,$5,$6,$7,$8,$9,$2,$3,0*
0 Add four circle primitives for the rounded corners*
1,1,$1+$1,$2,$3*
1,1,$1+$1,$4,$5*
1,1,$1+$1,$6,$7*
1,1,$1+$1,$8,$9*
0 Add four rect primitives between the rounded corners*
20,1,$1+$1,$2,$3,$4,$5,0*
20,1,$1+$1,$4,$5,$6,$7,0*
20,1,$1+$1,$6,$7,$8,$9,0*
20,1,$1+$1,$8,$9,$2,$3,0*%
G04 Aperture macros list end*
%TA.AperFunction,SMDPad,CuDef*%
%ADD10RoundRect,0.135000X0.135000X0.185000X-0.135000X0.185000X-0.135000X-0.185000X0.135000X-0.185000X0*%
%TD*%
%TA.AperFunction,ComponentPad*%
%ADD11C,5.600000*%
%TD*%
%TA.AperFunction,ViaPad*%
%ADD12C,0.600000*%
%TD*%
%TA.AperFunction,Conductor*%
%ADD13C,0.200000*%
%TD*%
G04 APERTURE END LIST*
D10*
%TO.P,R6,1*%
%TO.N,Net-(U1-V_BCKP)*%
X183510000Y-101000000D03*
%TO.P,R6,2*%
%TO.N,+3.3V*%
X182490000Y-101000000D03*
%TD*%
D11*
%TO.P,H1,1,1*%
%TO.N,GND*%
X166000000Y-101000000D03*
%TD*%
D12*
%TO.N,Net-(U1-V_BCKP)*%
X184500000Y-101000000D03*
%TO.N,+3.3V*%
X181500000Y-101000000D03*
%TO.N,GND*%
X166000000Y-92600000D03*
X175500000Y-96000000D03*
X174500000Y-97500000D03*
X184902500Y-107625000D03*
X168933600Y-104975000D03*
X174075400Y-107724100D03*
X148000000Y-95500000D03*
X184902500Y-94375000D03*
X183986800Y-104975000D03*
X183986800Y-97025000D03*
X183986800Y-99625000D03*
%TD*%
D13*
%TO.N,+3.3V*%
X181500000Y-101000000D02*
X182490000Y-101000000D01*
%TO.N,Net-(U1-V_BCKP)*%
X184500000Y-101000000D02*
X183510000Y-101000000D01*
%TD*%
%TA.AperFunction,Conductor*%
%TO.N,GND*%
G36*
X187004418Y-91000816D02*
G01*
X187204561Y-91015130D01*
X187222063Y-91017647D01*
X187413797Y-91059355D01*
X187430755Y-91064334D01*
X187614609Y-91132909D01*
X187630701Y-91140259D01*
X187802904Y-91234288D01*
X187817784Y-91243849D01*
X187974867Y-91361441D01*
X187988237Y-91373027D01*
X188126972Y-91511762D01*
X188138558Y-91525132D01*
X188256146Y-91682210D01*
X188265711Y-91697095D01*
X188359740Y-91869298D01*
X188367090Y-91885390D01*
X188435662Y-92069236D01*
X188440646Y-92086212D01*
X188482351Y-92277931D01*
X188484869Y-92295442D01*
X188499184Y-92495580D01*
X188499500Y-92504427D01*
X188499500Y-109495572D01*
X188499184Y-109504419D01*
X188484869Y-109704557D01*
X188482351Y-109722068D01*
X188440646Y-109913787D01*
X188435662Y-109930763D01*
X188367090Y-110114609D01*
X188359740Y-110130701D01*
X188265711Y-110302904D01*
X188256146Y-110317789D01*
X188138558Y-110474867D01*
X188126972Y-110488237D01*
X187988237Y-110626972D01*
X187974867Y-110638558D01*
X187817789Y-110756146D01*
X187802904Y-110765711D01*
X187630701Y-110859740D01*
X187614609Y-110867090D01*
X187430763Y-110935662D01*
X187413787Y-110940646D01*
X187222068Y-110982351D01*
X187204557Y-110984869D01*
X187023779Y-110997799D01*
X187004417Y-110999184D01*
X186995572Y-110999500D01*
X143504428Y-110999500D01*
X143495582Y-110999184D01*
X143473622Y-110997613D01*
X143295442Y-110984869D01*
X143277931Y-110982351D01*
X143086212Y-110940646D01*
X143069236Y-110935662D01*
X142885390Y-110867090D01*
X142869298Y-110859740D01*
X142697095Y-110765711D01*
X142682210Y-110756146D01*
X142525132Y-110638558D01*
X142511762Y-110626972D01*
X142373027Y-110488237D01*
X142361441Y-110474867D01*
X142243849Y-110317784D01*
X142234288Y-110302904D01*
X142140259Y-110130701D01*
X142132909Y-110114609D01*
X142072091Y-109951551D01*
X142064334Y-109930755D01*
X142059355Y-109913797D01*
X142017647Y-109722063D01*
X142015130Y-109704556D01*
X142000816Y-109504418D01*
X142000500Y-109495572D01*
X142000500Y-100361308D01*
X147734900Y-100361308D01*
X147734900Y-106993091D01*
X147769008Y-107120387D01*
X147801954Y-107177450D01*
X147834900Y-107234514D01*
X147928086Y-107327700D01*
X148042214Y-107393592D01*
X148169508Y-107427700D01*
X148169510Y-107427700D01*
X153801290Y-107427700D01*
X153801292Y-107427700D01*
X153928586Y-107393592D01*
X154042714Y-107327700D01*
X154135900Y-107234514D01*
X154201792Y-107120386D01*
X154235900Y-106993092D01*
X154235900Y-100921153D01*
X180699500Y-100921153D01*
X180699500Y-101078846D01*
X180730261Y-101233489D01*
X180730264Y-101233501D01*
X180790602Y-101379172D01*
X180790609Y-101379185D01*
X180878210Y-101510288D01*
X180878213Y-101510292D01*
X180989707Y-101621786D01*
X180989711Y-101621789D01*
X181120814Y-101709390D01*
X181120827Y-101709397D01*
X181191985Y-101738871D01*
X181266503Y-101769737D01*
X181421153Y-101800499D01*
X181421156Y-101800500D01*
X181421158Y-101800500D01*
X181578844Y-101800500D01*
X181578845Y-101800499D01*
X181733497Y-101769737D01*
X181808015Y-101738871D01*
X181884808Y-101707063D01*
X181885450Y-101708614D01*
X181945957Y-101696001D01*
X181999156Y-101712871D01*
X182100607Y-101772869D01*
X182100614Y-101772871D01*
X182254791Y-101817664D01*
X182254794Y-101817664D01*
X182254796Y-101817665D01*
X182290819Y-101820500D01*
X182689180Y-101820499D01*
X182725204Y-101817665D01*
X182879393Y-101772869D01*
X182936882Y-101738869D01*
X183004602Y-101721688D01*
X183063117Y-101738869D01*
X183120607Y-101772869D01*
X183120610Y-101772869D01*
X183120612Y-101772871D01*
X183274791Y-101817664D01*
X183274794Y-101817664D01*
X183274796Y-101817665D01*
X183310819Y-101820500D01*
X183709180Y-101820499D01*
X183745204Y-101817665D01*
X183899393Y-101772869D01*
X184000844Y-101712870D01*
X184068564Y-101695689D01*
X184114732Y-101708172D01*
X184115192Y-101707063D01*
X184191985Y-101738871D01*
X184266503Y-101769737D01*
X184421153Y-101800499D01*
X184421156Y-101800500D01*
X184421158Y-101800500D01*
X184578844Y-101800500D01*
X184578845Y-101800499D01*
X184733497Y-101769737D01*
X184879179Y-101709394D01*
X185010289Y-101621789D01*
X185121789Y-101510289D01*
X185209394Y-101379179D01*
X185269737Y-101233497D01*
X185300500Y-101078842D01*
X185300500Y-100921158D01*
X185300500Y-100921155D01*
X185300499Y-100921153D01*
X185269738Y-100766510D01*
X185269737Y-100766503D01*
X185269735Y-100766498D01*
X185209397Y-100620827D01*
X185209390Y-100620814D01*
X185121789Y-100489711D01*
X185121786Y-100489707D01*
X185010292Y-100378213D01*
X185010288Y-100378210D01*
X184879185Y-100290609D01*
X184879172Y-100290602D01*
X184733501Y-100230264D01*
X184733489Y-100230261D01*
X184578845Y-100199500D01*
X184578842Y-100199500D01*
X184421158Y-100199500D01*
X184421155Y-100199500D01*
X184266510Y-100230261D01*
X184266498Y-100230264D01*
X184115192Y-100292937D01*
X184114552Y-100291392D01*
X184054003Y-100303994D01*
X184000841Y-100287127D01*
X183899393Y-100227131D01*
X183899388Y-100227129D01*
X183745208Y-100182335D01*
X183745202Y-100182334D01*
X183709181Y-100179500D01*
X183310830Y-100179500D01*
X183310808Y-100179501D01*
X183274794Y-100182335D01*
X183120611Y-100227129D01*
X183120604Y-100227132D01*
X183063119Y-100261128D01*
X182995395Y-100278309D01*
X182936881Y-100261128D01*
X182879395Y-100227132D01*
X182879388Y-100227129D01*
X182725208Y-100182335D01*
X182725202Y-100182334D01*
X182689181Y-100179500D01*
X182290830Y-100179500D01*
X182290808Y-100179501D01*
X182254794Y-100182335D01*
X182100611Y-100227129D01*
X182100602Y-100227133D01*
X181999157Y-100287127D01*
X181931433Y-100304310D01*
X181885266Y-100291829D01*
X181884808Y-100292937D01*
X181733501Y-100230264D01*
X181733489Y-100230261D01*
X181578845Y-100199500D01*
X181578842Y-100199500D01*
X181421158Y-100199500D01*
X181421155Y-100199500D01*
X181266510Y-100230261D01*
X181266498Y-100230264D01*
X181120827Y-100290602D01*
X181120814Y-100290609D01*
X180989711Y-100378210D01*
X180989707Y-100378213D01*
X180878213Y-100489707D01*
X180878210Y-100489711D01*
X180790609Y-100620814D01*
X180790602Y-100620827D01*
X180730264Y-100766498D01*
X180730261Y-100766510D01*
X180699500Y-100921153D01*
X154235900Y-100921153D01*
X154235900Y-100361308D01*
X154201792Y-100234014D01*
X154135900Y-100119886D01*
X154042714Y-100026700D01*
X153985650Y-99993754D01*
X153928587Y-99960808D01*
X153864939Y-99943754D01*
X153801292Y-99926700D01*
X148301292Y-99926700D01*
X148169508Y-99926700D01*
X148042212Y-99960808D01*
X147928086Y-100026700D01*
X147928083Y-100026702D01*
X147834902Y-100119883D01*
X147834900Y-100119886D01*
X147769008Y-100234012D01*
X147734900Y-100361308D01*
X142000500Y-100361308D01*
X142000500Y-92504427D01*
X142000816Y-92495581D01*
X142015130Y-92295443D01*
X142015131Y-92295434D01*
X142017646Y-92277938D01*
X142059356Y-92086199D01*
X142064333Y-92069248D01*
X142132911Y-91885385D01*
X142140259Y-91869298D01*
X142202815Y-91754734D01*
X142234291Y-91697089D01*
X142243845Y-91682221D01*
X142361448Y-91525123D01*
X142373020Y-91511769D01*
X142511769Y-91373020D01*
X142525123Y-91361448D01*
X142682221Y-91243845D01*
X142697089Y-91234291D01*
X142869298Y-91140258D01*
X142885385Y-91132911D01*
X143069248Y-91064333D01*
X143086199Y-91059356D01*
X143277938Y-91017646D01*
X143295436Y-91015130D01*
X143495582Y-91000816D01*
X143504428Y-91000500D01*
X143565892Y-91000500D01*
X186934108Y-91000500D01*
X186995572Y-91000500D01*
X187004418Y-91000816D01*
G37*
%TD.AperFunction*%
%TD*%
M02*
