%TF.GenerationSoftware,KiCad,Pcbnew,9.0.4*%
%TF.CreationDate,2026-02-18T20:57:08-05:00*%
%TF.ProjectId,seeed_studio_GNSS,73656565-645f-4737-9475-64696f5f474e,rev?*%
%TF.SameCoordinates,Original*%
%TF.FileFunction,Soldermask,Top*%
%TF.FilePolarity,Negative*%
%FSLAX46Y46*%
G04 Gerber Fmt 4.6, Leading zero omitted, Abs format (unit mm)*
G04 Created by KiCad (PCBNEW 9.0.4) date 2026-02-18 20:57:08*
%MOMM*%
%LPD*%
G01*
G04 APERTURE LIST*
G04 Aperture macros list*
%AMRoundRect*
0 Rectangle with rounded corners*
0 $1 Rounding radius*
0 $2 $3 $4 $5 $6 $7 $8 $9 X,Y pos of 4 corners*
0 Add a 4 corners polygon primitive as box body*
4,1,4,$2,$3,$4,$5,$6,$7,$8,$9,$2,$3,0*
0 Add four circle primitives for the rounded corners*
1,1,$1+$1,$2,$3*
1,1,$1+$1,$4,$5*
1,1,$1+$1,$6,$7*
1,1,$1+$1,$8,$9*
0 Add four rect primitives between the rounded corners*
20,1,$1+$1,$2,$3,$4,$5,0*
20,1,$1+$1,$4,$5,$6,$7,0*
20,1,$1+$1,$6,$7,$8,$9,0*
20,1,$1+$1,$8,$9,$2,$3,0*%
G04 Aperture macros list end*
%ADD10C,0.010000*%
%ADD11RoundRect,0.200000X0.275000X-0.200000X0.275000X0.200000X-0.275000X0.200000X-0.275000X-0.200000X0*%
%ADD12RoundRect,0.150000X-0.587500X-0.150000X0.587500X-0.150000X0.587500X0.150000X-0.587500X0.150000X0*%
%ADD13RoundRect,0.200000X0.200000X0.275000X-0.200000X0.275000X-0.200000X-0.275000X0.200000X-0.275000X0*%
%ADD14RoundRect,0.200000X-0.200000X-0.275000X0.200000X-0.275000X0.200000X0.275000X-0.200000X0.275000X0*%
%ADD15RoundRect,0.525400X0.525400X-0.900400X0.525400X0.900400X-0.525400X0.900400X-0.525400X-0.900400X0*%
%ADD16RoundRect,0.300400X-0.300400X1.000400X-0.300400X-1.000400X0.300400X-1.000400X0.300400X1.000400X0*%
%ADD17RoundRect,0.300400X-1.000400X-0.300400X1.000400X-0.300400X1.000400X0.300400X-1.000400X0.300400X0*%
%ADD18C,1.700000*%
%ADD19C,5.600000*%
G04 APERTURE END LIST*
D10*
%TO.C,U1*%
X188685400Y-105600000D02*
X184785400Y-105600000D01*
X184785400Y-104000000D01*
X188685400Y-104000000D01*
X188685400Y-105600000D01*
G36*
X188685400Y-105600000D02*
G01*
X184785400Y-105600000D01*
X184785400Y-104000000D01*
X188685400Y-104000000D01*
X188685400Y-105600000D01*
G37*
X188685400Y-103700000D02*
X184785400Y-103700000D01*
X184785400Y-102100000D01*
X188685400Y-102100000D01*
X188685400Y-103700000D01*
G36*
X188685400Y-103700000D02*
G01*
X184785400Y-103700000D01*
X184785400Y-102100000D01*
X188685400Y-102100000D01*
X188685400Y-103700000D01*
G37*
X188685400Y-101800000D02*
X184785400Y-101800000D01*
X184785400Y-100200000D01*
X188685400Y-100200000D01*
X188685400Y-101800000D01*
G36*
X188685400Y-101800000D02*
G01*
X184785400Y-101800000D01*
X184785400Y-100200000D01*
X188685400Y-100200000D01*
X188685400Y-101800000D01*
G37*
X188685400Y-99900000D02*
X184785400Y-99900000D01*
X184785400Y-98300000D01*
X188685400Y-98300000D01*
X188685400Y-99900000D01*
G36*
X188685400Y-99900000D02*
G01*
X184785400Y-99900000D01*
X184785400Y-98300000D01*
X188685400Y-98300000D01*
X188685400Y-99900000D01*
G37*
X188685400Y-98000000D02*
X184785400Y-98000000D01*
X184785400Y-96400000D01*
X188685400Y-96400000D01*
X188685400Y-98000000D01*
G36*
X188685400Y-98000000D02*
G01*
X184785400Y-98000000D01*
X184785400Y-96400000D01*
X188685400Y-96400000D01*
X188685400Y-98000000D01*
G37*
X183735400Y-110550000D02*
X182135400Y-110550000D01*
X182135400Y-106650000D01*
X183735400Y-106650000D01*
X183735400Y-110550000D01*
G36*
X183735400Y-110550000D02*
G01*
X182135400Y-110550000D01*
X182135400Y-106650000D01*
X183735400Y-106650000D01*
X183735400Y-110550000D01*
G37*
X183735400Y-95350000D02*
X182135400Y-95350000D01*
X182135400Y-91450000D01*
X183735400Y-91450000D01*
X183735400Y-95350000D01*
G36*
X183735400Y-95350000D02*
G01*
X182135400Y-95350000D01*
X182135400Y-91450000D01*
X183735400Y-91450000D01*
X183735400Y-95350000D01*
G37*
X181835400Y-110550000D02*
X180235400Y-110550000D01*
X180235400Y-106650000D01*
X181835400Y-106650000D01*
X181835400Y-110550000D01*
G36*
X181835400Y-110550000D02*
G01*
X180235400Y-110550000D01*
X180235400Y-106650000D01*
X181835400Y-106650000D01*
X181835400Y-110550000D01*
G37*
X181835400Y-95350000D02*
X180235400Y-95350000D01*
X180235400Y-91450000D01*
X181835400Y-91450000D01*
X181835400Y-95350000D01*
G36*
X181835400Y-95350000D02*
G01*
X180235400Y-95350000D01*
X180235400Y-91450000D01*
X181835400Y-91450000D01*
X181835400Y-95350000D01*
G37*
X179935400Y-110550000D02*
X178335400Y-110550000D01*
X178335400Y-106650000D01*
X179935400Y-106650000D01*
X179935400Y-110550000D01*
G36*
X179935400Y-110550000D02*
G01*
X178335400Y-110550000D01*
X178335400Y-106650000D01*
X179935400Y-106650000D01*
X179935400Y-110550000D01*
G37*
X179935400Y-95350000D02*
X178335400Y-95350000D01*
X178335400Y-91450000D01*
X179935400Y-91450000D01*
X179935400Y-95350000D01*
G36*
X179935400Y-95350000D02*
G01*
X178335400Y-95350000D01*
X178335400Y-91450000D01*
X179935400Y-91450000D01*
X179935400Y-95350000D01*
G37*
X178035400Y-110550000D02*
X176435400Y-110550000D01*
X176435400Y-106650000D01*
X178035400Y-106650000D01*
X178035400Y-110550000D01*
G36*
X178035400Y-110550000D02*
G01*
X176435400Y-110550000D01*
X176435400Y-106650000D01*
X178035400Y-106650000D01*
X178035400Y-110550000D01*
G37*
X178035400Y-95350000D02*
X176435400Y-95350000D01*
X176435400Y-91450000D01*
X178035400Y-91450000D01*
X178035400Y-95350000D01*
G36*
X178035400Y-95350000D02*
G01*
X176435400Y-95350000D01*
X176435400Y-91450000D01*
X178035400Y-91450000D01*
X178035400Y-95350000D01*
G37*
X176135400Y-110550000D02*
X174535400Y-110550000D01*
X174535400Y-106650000D01*
X176135400Y-106650000D01*
X176135400Y-110550000D01*
G36*
X176135400Y-110550000D02*
G01*
X174535400Y-110550000D01*
X174535400Y-106650000D01*
X176135400Y-106650000D01*
X176135400Y-110550000D01*
G37*
X176135400Y-95350000D02*
X174535400Y-95350000D01*
X174535400Y-91450000D01*
X176135400Y-91450000D01*
X176135400Y-95350000D01*
G36*
X176135400Y-95350000D02*
G01*
X174535400Y-95350000D01*
X174535400Y-91450000D01*
X176135400Y-91450000D01*
X176135400Y-95350000D01*
G37*
X173485400Y-105600000D02*
X169585400Y-105600000D01*
X169585400Y-104000000D01*
X173485400Y-104000000D01*
X173485400Y-105600000D01*
G36*
X173485400Y-105600000D02*
G01*
X169585400Y-105600000D01*
X169585400Y-104000000D01*
X173485400Y-104000000D01*
X173485400Y-105600000D01*
G37*
X173485400Y-103700000D02*
X169585400Y-103700000D01*
X169585400Y-102100000D01*
X173485400Y-102100000D01*
X173485400Y-103700000D01*
G36*
X173485400Y-103700000D02*
G01*
X169585400Y-103700000D01*
X169585400Y-102100000D01*
X173485400Y-102100000D01*
X173485400Y-103700000D01*
G37*
X173485400Y-101800000D02*
X169585400Y-101800000D01*
X169585400Y-100200000D01*
X173485400Y-100200000D01*
X173485400Y-101800000D01*
G36*
X173485400Y-101800000D02*
G01*
X169585400Y-101800000D01*
X169585400Y-100200000D01*
X173485400Y-100200000D01*
X173485400Y-101800000D01*
G37*
X173485400Y-99900000D02*
X169585400Y-99900000D01*
X169585400Y-98300000D01*
X173485400Y-98300000D01*
X173485400Y-99900000D01*
G36*
X173485400Y-99900000D02*
G01*
X169585400Y-99900000D01*
X169585400Y-98300000D01*
X173485400Y-98300000D01*
X173485400Y-99900000D01*
G37*
X173485400Y-98000000D02*
X169585400Y-98000000D01*
X169585400Y-96400000D01*
X173485400Y-96400000D01*
X173485400Y-98000000D01*
G36*
X173485400Y-98000000D02*
G01*
X169585400Y-98000000D01*
X169585400Y-96400000D01*
X173485400Y-96400000D01*
X173485400Y-98000000D01*
G37*
%TD*%
D11*
%TO.C,R5*%
X168000000Y-94850000D03*
X168000000Y-96500000D03*
%TD*%
%TO.C,R4*%
X166000000Y-96500000D03*
X166000000Y-94850000D03*
%TD*%
%TO.C,R3*%
X163980000Y-96500000D03*
X163980000Y-94850000D03*
%TD*%
D12*
%TO.C,Q1*%
X167625000Y-107050000D03*
X167625000Y-108950000D03*
X169500000Y-108000000D03*
%TD*%
D13*
%TO.C,R1*%
X165325000Y-106500000D03*
X163675000Y-106500000D03*
%TD*%
D14*
%TO.C,R2*%
X163675000Y-109500000D03*
X165325000Y-109500000D03*
%TD*%
D15*
%TO.C,U2*%
X144495400Y-109092200D03*
X147035400Y-109092200D03*
X149575400Y-109092200D03*
X152115400Y-109092200D03*
X154655400Y-109092200D03*
X157195400Y-109092200D03*
X159735400Y-109092200D03*
X159735400Y-92927200D03*
X157195400Y-92927200D03*
X154655400Y-92927200D03*
X152115400Y-92927200D03*
X149575400Y-92927200D03*
X147035400Y-92927200D03*
X144495400Y-92927200D03*
D16*
X151801900Y-105482200D03*
X149896900Y-105482200D03*
D17*
X161352300Y-97227200D03*
X161352300Y-95322200D03*
D18*
X143546900Y-102307200D03*
X143546900Y-99767200D03*
X146086900Y-102307200D03*
X146086900Y-99767200D03*
%TD*%
D19*
%TO.C,H1*%
X166000000Y-101000000D03*
%TD*%
M02*
