%TF.GenerationSoftware,KiCad,Pcbnew,9.0.4*%
%TF.CreationDate,2026-02-18T20:57:08-05:00*%
%TF.ProjectId,seeed_studio_GNSS,73656565-645f-4737-9475-64696f5f474e,rev?*%
%TF.SameCoordinates,Original*%
%TF.FileFunction,Copper,L1,Top*%
%TF.FilePolarity,Positive*%
%FSLAX46Y46*%
G04 Gerber Fmt 4.6, Leading zero omitted, Abs format (unit mm)*
G04 Created by KiCad (PCBNEW 9.0.4) date 2026-02-18 20:57:08*
%MOMM*%
%LPD*%
G01*
G04 APERTURE LIST*
G04 Aperture macros list*
%AMRoundRect*
0 Rectangle with rounded corners*
0 $1 Rounding radius*
0 $2 $3 $4 $5 $6 $7 $8 $9 X,Y pos of 4 corners*
0 Add a 4 corners polygon primitive as box body*
4,1,4,$2,$3,$4,$5,$6,$7,$8,$9,$2,$3,0*
0 Add four circle primitives for the rounded corners*
1,1,$1+$1,$2,$3*
1,1,$1+$1,$4,$5*
1,1,$1+$1,$6,$7*
1,1,$1+$1,$8,$9*
0 Add four rect primitives between the rounded corners*
20,1,$1+$1,$2,$3,$4,$5,0*
20,1,$1+$1,$4,$5,$6,$7,0*
20,1,$1+$1,$6,$7,$8,$9,0*
20,1,$1+$1,$8,$9,$2,$3,0*%
G04 Aperture macros list end*
%TA.AperFunction,SMDPad,CuDef*%
%ADD10RoundRect,0.200000X0.275000X-0.200000X0.275000X0.200000X-0.275000X0.200000X-0.275000X-0.200000X0*%
%TD*%
%TA.AperFunction,SMDPad,CuDef*%
%ADD11RoundRect,0.150000X-0.587500X-0.150000X0.587500X-0.150000X0.587500X0.150000X-0.587500X0.150000X0*%
%TD*%
%TA.AperFunction,SMDPad,CuDef*%
%ADD12RoundRect,0.200000X0.200000X0.275000X-0.200000X0.275000X-0.200000X-0.275000X0.200000X-0.275000X0*%
%TD*%
%TA.AperFunction,SMDPad,CuDef*%
%ADD13RoundRect,0.200000X-0.200000X-0.275000X0.200000X-0.275000X0.200000X0.275000X-0.200000X0.275000X0*%
%TD*%
%TA.AperFunction,SMDPad,CuDef*%
%ADD14RoundRect,0.500000X0.500000X-0.875000X0.500000X0.875000X-0.500000X0.875000X-0.500000X-0.875000X0*%
%TD*%
%TA.AperFunction,SMDPad,CuDef*%
%ADD15RoundRect,0.275000X-0.275000X0.975000X-0.275000X-0.975000X0.275000X-0.975000X0.275000X0.975000X0*%
%TD*%
%TA.AperFunction,SMDPad,CuDef*%
%ADD16RoundRect,0.275000X-0.975000X-0.275000X0.975000X-0.275000X0.975000X0.275000X-0.975000X0.275000X0*%
%TD*%
%TA.AperFunction,SMDPad,CuDef*%
%ADD17C,1.700000*%
%TD*%
%TA.AperFunction,SMDPad,CuDef*%
%ADD18R,1.500000X3.800000*%
%TD*%
%TA.AperFunction,SMDPad,CuDef*%
%ADD19R,3.800000X1.500000*%
%TD*%
%TA.AperFunction,ComponentPad*%
%ADD20C,5.600000*%
%TD*%
%TA.AperFunction,ViaPad*%
%ADD21C,0.600000*%
%TD*%
%TA.AperFunction,Conductor*%
%ADD22C,0.200000*%
%TD*%
%TA.AperFunction,Conductor*%
%ADD23C,0.400000*%
%TD*%
%TA.AperFunction,Conductor*%
%ADD24C,0.500000*%
%TD*%
G04 APERTURE END LIST*
D10*
%TO.P,R5,2*%
%TO.N,GND*%
X168000000Y-94850000D03*
%TO.P,R5,1*%
%TO.N,Net-(U2-5V)*%
X168000000Y-96500000D03*
%TD*%
%TO.P,R4,1*%
%TO.N,Net-(U2-5V)*%
X166000000Y-96500000D03*
%TO.P,R4,2*%
%TO.N,GND*%
X166000000Y-94850000D03*
%TD*%
%TO.P,R3,1*%
%TO.N,Net-(U2-5V)*%
X163980000Y-96500000D03*
%TO.P,R3,2*%
%TO.N,GND*%
X163980000Y-94850000D03*
%TD*%
D11*
%TO.P,Q1,1,G*%
%TO.N,Net-(Q1-G)*%
X167625000Y-107050000D03*
%TO.P,Q1,2,S*%
%TO.N,+3.3V*%
X167625000Y-108950000D03*
%TO.P,Q1,3,D*%
%TO.N,Net-(Q1-D)*%
X169500000Y-108000000D03*
%TD*%
D12*
%TO.P,R1,1*%
%TO.N,Net-(Q1-G)*%
X165325000Y-106500000D03*
%TO.P,R1,2*%
%TO.N,GPS EN*%
X163675000Y-106500000D03*
%TD*%
D13*
%TO.P,R2,1*%
%TO.N,GPS EN*%
X163675000Y-109500000D03*
%TO.P,R2,2*%
%TO.N,+3.3V*%
X165325000Y-109500000D03*
%TD*%
D14*
%TO.P,U2,1,PA02_A0_D0*%
%TO.N,unconnected-(U2-PA02_A0_D0-Pad1)*%
X144495400Y-109092200D03*
%TO.P,U2,2,PA4_A1_D1*%
%TO.N,GPS EN*%
X147035400Y-109092200D03*
%TO.P,U2,3,PA10_A2_D2*%
%TO.N,unconnected-(U2-PA10_A2_D2-Pad3)*%
X149575400Y-109092200D03*
%TO.P,U2,4,PA11_A3_D3*%
%TO.N,unconnected-(U2-PA11_A3_D3-Pad4)*%
X152115400Y-109092200D03*
%TO.P,U2,5,PA8_A4_D4_SDA*%
%TO.N,unconnected-(U2-PA8_A4_D4_SDA-Pad5)*%
X154655400Y-109092200D03*
%TO.P,U2,6,PA9_A5_D5_SCL*%
%TO.N,unconnected-(U2-PA9_A5_D5_SCL-Pad6)*%
X157195400Y-109092200D03*
%TO.P,U2,7,PB08_A6_D6_TX*%
%TO.N,GPS RX*%
X159735400Y-109092200D03*
%TO.P,U2,8,PB09_A7_D7_RX*%
%TO.N,GPS TX*%
X159735400Y-92927200D03*
%TO.P,U2,9,PA7_A8_D8_SCK*%
%TO.N,unconnected-(U2-PA7_A8_D8_SCK-Pad9)*%
X157195400Y-92927200D03*
%TO.P,U2,10,PA5_A9_D9_MISO*%
%TO.N,unconnected-(U2-PA5_A9_D9_MISO-Pad10)*%
X154655400Y-92927200D03*
%TO.P,U2,11,PA6_A10_D10_MOSI*%
%TO.N,unconnected-(U2-PA6_A10_D10_MOSI-Pad11)*%
X152115400Y-92927200D03*
%TO.P,U2,12,3V3*%
%TO.N,+3.3V*%
X149575400Y-92927200D03*
%TO.P,U2,13,GND*%
%TO.N,GND*%
X147035400Y-92927200D03*
%TO.P,U2,14,5V*%
%TO.N,Net-(U2-5V)*%
X144495400Y-92927200D03*
D15*
%TO.P,U2,15,BAT*%
%TO.N,unconnected-(U2-BAT-Pad15)*%
X151801900Y-105482200D03*
%TO.P,U2,16,GND*%
%TO.N,unconnected-(U2-GND-Pad16)*%
X149896900Y-105482200D03*
D16*
%TO.P,U2,17,NFC1*%
%TO.N,unconnected-(U2-NFC1-Pad17)*%
X161352300Y-97227200D03*
%TO.P,U2,18,NFC2*%
%TO.N,unconnected-(U2-NFC2-Pad18)*%
X161352300Y-95322200D03*
D17*
%TO.P,U2,19,PA31_SWDIO*%
%TO.N,unconnected-(U2-PA31_SWDIO-Pad19)*%
X143546900Y-102307200D03*
%TO.P,U2,20,PA30_SWCLK*%
%TO.N,unconnected-(U2-PA30_SWCLK-Pad20)*%
X143546900Y-99767200D03*
%TO.P,U2,21,RESET*%
%TO.N,unconnected-(U2-RESET-Pad21)*%
X146086900Y-102307200D03*
%TO.P,U2,22,GND*%
%TO.N,unconnected-(U2-GND-Pad22)*%
X146086900Y-99767200D03*
%TD*%
D18*
%TO.P,U1,20,GND*%
%TO.N,GND*%
X182935400Y-108600000D03*
%TO.P,U1,19,EXTINT*%
%TO.N,unconnected-(U1-EXTINT-Pad19)*%
X181035400Y-108600000D03*
%TO.P,U1,18,~{RESET}*%
%TO.N,unconnected-(U1-~{RESET}-Pad18)*%
X179135400Y-108600000D03*
%TO.P,U1,17,VCC*%
%TO.N,Net-(Q1-D)*%
X177235400Y-108600000D03*
%TO.P,U1,16,GND*%
%TO.N,GND*%
X175335400Y-108600000D03*
D19*
%TO.P,U1,15,GND*%
X171535400Y-104800000D03*
%TO.P,U1,14,RXD*%
%TO.N,GPS RX*%
X171535400Y-102900000D03*
%TO.P,U1,13,TXD*%
%TO.N,GPS TX*%
X171535400Y-101000000D03*
%TO.P,U1,12,SCL*%
%TO.N,unconnected-(U1-SCL-Pad12)*%
X171535400Y-99100000D03*
%TO.P,U1,11,GND*%
%TO.N,GND*%
X171535400Y-97200000D03*
D18*
%TO.P,U1,10,GND*%
X175335400Y-93400000D03*
%TO.P,U1,9,SDA*%
%TO.N,unconnected-(U1-SDA-Pad9)*%
X177235400Y-93400000D03*
%TO.P,U1,8,~{SAFEBOOT}*%
%TO.N,unconnected-(U1-~{SAFEBOOT}-Pad8)*%
X179135400Y-93400000D03*
%TO.P,U1,7,TIMEPULSE*%
%TO.N,unconnected-(U1-TIMEPULSE-Pad7)*%
X181035400Y-93400000D03*
%TO.P,U1,6,GND*%
%TO.N,GND*%
X182935400Y-93400000D03*
D19*
%TO.P,U1,5,GND*%
X186735400Y-97200000D03*
%TO.P,U1,4,GND*%
X186735400Y-99100000D03*
%TO.P,U1,3,V_BCKP*%
%TO.N,Net-(U1-V_BCKP)*%
X186735400Y-101000000D03*
%TO.P,U1,2,V_IO*%
%TO.N,Net-(Q1-D)*%
X186735400Y-102900000D03*
%TO.P,U1,1,GND*%
%TO.N,GND*%
X186735400Y-104800000D03*
%TD*%
D20*
%TO.P,H1,1,1*%
%TO.N,GND*%
X166000000Y-101000000D03*
%TD*%
D21*
%TO.N,Net-(U1-V_BCKP)*%
X184500000Y-101000000D03*
%TO.N,+3.3V*%
X181500000Y-101000000D03*
%TO.N,GND*%
X166000000Y-92600000D03*
X175500000Y-96000000D03*
X174500000Y-97500000D03*
X184902500Y-107625000D03*
X168933600Y-104975000D03*
X174075400Y-107724100D03*
X148000000Y-95500000D03*
X184902500Y-94375000D03*
X183986800Y-104975000D03*
X183986800Y-97025000D03*
X183986800Y-99625000D03*
%TD*%
D22*
%TO.N,+3.3V*%
X178412100Y-101000000D02*
X181500000Y-101000000D01*
%TO.N,Net-(U1-V_BCKP)*%
X186735400Y-101000000D02*
X184500000Y-101000000D01*
%TO.N,GND*%
X183829300Y-106398300D02*
X182935400Y-106398300D01*
X184902500Y-107625000D02*
X184902500Y-107471500D01*
X184902500Y-107471500D02*
X183829300Y-106398300D01*
X182935400Y-106398300D02*
X182935400Y-108600000D01*
X173700000Y-97200000D02*
X171535400Y-97200000D01*
X174000000Y-97500000D02*
X173700000Y-97200000D01*
X174500000Y-97500000D02*
X174000000Y-97500000D01*
D23*
%TO.N,Net-(U2-5V)*%
X159500000Y-99000000D02*
X162500000Y-99000000D01*
X164000000Y-97500000D02*
X164000000Y-96520000D01*
X144500000Y-97000000D02*
X157500000Y-97000000D01*
X164000000Y-96520000D02*
X163980000Y-96500000D01*
X144500000Y-92931800D02*
X144500000Y-97000000D01*
X144495400Y-92927200D02*
X144500000Y-92931800D01*
X157500000Y-97000000D02*
X159500000Y-99000000D01*
X162500000Y-99000000D02*
X164000000Y-97500000D01*
%TO.N,GND*%
X167675000Y-93175000D02*
X168000000Y-93175000D01*
X167100000Y-92600000D02*
X167675000Y-93175000D01*
D22*
%TO.N,+3.3V*%
X173000000Y-107000000D02*
X169112500Y-107000000D01*
X167625000Y-108487500D02*
X167625000Y-108950000D01*
X178412100Y-101587900D02*
X173000000Y-107000000D01*
X169112500Y-107000000D02*
X167625000Y-108487500D01*
X178412100Y-101000000D02*
X178412100Y-101587900D01*
D24*
%TO.N,GND*%
X147000000Y-94500000D02*
X147000000Y-92962600D01*
X148000000Y-95500000D02*
X147000000Y-94500000D01*
D23*
X166000000Y-92600000D02*
X167100000Y-92600000D01*
X168000000Y-93175000D02*
X168000000Y-94850000D01*
%TO.N,Net-(U2-5V)*%
X166000000Y-96500000D02*
X163980000Y-96500000D01*
X168000000Y-96500000D02*
X166000000Y-96500000D01*
%TO.N,GND*%
X166000000Y-94850000D02*
X168000000Y-94850000D01*
X163980000Y-94850000D02*
X166000000Y-94850000D01*
D22*
%TO.N,GPS TX*%
X160662600Y-92000000D02*
X159735400Y-92927200D01*
X169000000Y-92000000D02*
X160662600Y-92000000D01*
X169333700Y-92333700D02*
X169000000Y-92000000D01*
X169333700Y-99975000D02*
X169333700Y-92333700D01*
X170358700Y-101000000D02*
X169333700Y-99975000D01*
X171535400Y-101000000D02*
X170358700Y-101000000D01*
%TO.N,+3.3V*%
X169698000Y-91198000D02*
X151304600Y-91198000D01*
X151304600Y-91198000D02*
X149575400Y-92927200D01*
X178412100Y-99912100D02*
X169698000Y-91198000D01*
X178412100Y-101000000D02*
X178412100Y-99912100D01*
%TO.N,GND*%
X184008700Y-99625000D02*
X184533700Y-99100000D01*
X183986800Y-104975000D02*
X184358700Y-104975000D01*
%TO.N,Net-(Q1-G)*%
X167625000Y-107050000D02*
X165875000Y-107050000D01*
%TO.N,Net-(Q1-D)*%
X170500000Y-109000000D02*
X169500000Y-108000000D01*
%TO.N,Net-(Q1-G)*%
X165875000Y-107050000D02*
X165325000Y-106500000D01*
%TO.N,GND*%
X175335400Y-95835400D02*
X175335400Y-93400000D01*
X184902500Y-94528500D02*
X183829300Y-95601700D01*
X183986800Y-99625000D02*
X184008700Y-99625000D01*
X184902500Y-94375000D02*
X184902500Y-94528500D01*
X168933600Y-104975000D02*
X169158700Y-104975000D01*
X184358700Y-97025000D02*
X184533700Y-97200000D01*
X186735400Y-97200000D02*
X184533700Y-97200000D01*
X183829300Y-95601700D02*
X182935400Y-95601700D01*
X175500000Y-96000000D02*
X175335400Y-95835400D01*
X186735400Y-104800000D02*
X184533700Y-104800000D01*
X186735400Y-99100000D02*
X184533700Y-99100000D01*
X184358700Y-104975000D02*
X184533700Y-104800000D01*
X174075400Y-107724100D02*
X174459500Y-107724100D01*
%TO.N,GPS EN*%
X162363400Y-110811600D02*
X148754800Y-110811600D01*
%TO.N,Net-(Q1-D)*%
X177235400Y-110764600D02*
X177101000Y-110899000D01*
X170500000Y-110500000D02*
X170500000Y-109000000D01*
%TO.N,GPS EN*%
X163675000Y-109166500D02*
X163675000Y-109125200D01*
%TO.N,Net-(Q1-D)*%
X180733700Y-102900000D02*
X186735400Y-102900000D01*
X170899000Y-110899000D02*
X170500000Y-110500000D01*
%TO.N,GPS EN*%
X163675000Y-109500000D02*
X163675000Y-109166500D01*
%TO.N,GPS RX*%
X167733700Y-104500000D02*
X164327600Y-104500000D01*
D24*
%TO.N,GND*%
X147000000Y-92962600D02*
X147035400Y-92927200D01*
D22*
X169158700Y-104975000D02*
X169333700Y-104800000D01*
%TO.N,GPS RX*%
X169333700Y-102900000D02*
X167733700Y-104500000D01*
%TO.N,GND*%
X182935400Y-93400000D02*
X182935400Y-95601700D01*
%TO.N,Net-(Q1-D)*%
X177101000Y-110899000D02*
X170899000Y-110899000D01*
X177235400Y-106398300D02*
X180733700Y-102900000D01*
%TO.N,GND*%
X171535400Y-104800000D02*
X169333700Y-104800000D01*
X183986800Y-97025000D02*
X184358700Y-97025000D01*
X174459500Y-107724100D02*
X175335400Y-108600000D01*
%TO.N,GPS RX*%
X164327600Y-104500000D02*
X159735400Y-109092200D01*
X171535400Y-102900000D02*
X169333700Y-102900000D01*
%TO.N,+3.3V*%
X167625000Y-108950000D02*
X165875000Y-108950000D01*
%TO.N,Net-(Q1-D)*%
X177235400Y-108600000D02*
X177235400Y-106398300D01*
%TO.N,+3.3V*%
X165875000Y-108950000D02*
X165325000Y-109500000D01*
%TO.N,Net-(Q1-D)*%
X177235400Y-108600000D02*
X177235400Y-110764600D01*
%TO.N,GPS EN*%
X163675000Y-109500000D02*
X162363400Y-110811600D01*
X148754800Y-110811600D02*
X147035400Y-109092200D01*
X163675000Y-109125200D02*
X163675000Y-106500000D01*
%TD*%
M02*
