%TF.GenerationSoftware,KiCad,Pcbnew,9.0.4*%
%TF.CreationDate,2026-08-06T11:09:35-04:00*%
%TF.ProjectId,seeed_studio_GNSS,73656565-645f-4737-9475-64696f5f474e,rev?*%
%TF.SameCoordinates,Original*%
%TF.FileFunction,Copper,L2,Bot*%
%TF.FilePolarity,Positive*%
%FSLAX46Y46*%
G04 Gerber Fmt 4.6, Leading zero omitted, Abs format (unit mm)*
G04 Created by KiCad (PCBNEW 9.0.4) date 2026-08-06 11:09:35*
%MOMM*%
%LPD*%
G01*
G04 APERTURE LIST*
%TA.AperFunction,EtchedComponent*%
%ADD10C,0.000000*%
%TD*%
%TA.AperFunction,ComponentPad*%
%ADD11C,5.600000*%
%TD*%
%TA.AperFunction,SMDPad,CuDef*%
%ADD12R,1.000000X1.500000*%
%TD*%
%TA.AperFunction,ViaPad*%
%ADD13C,0.600000*%
%TD*%
%TA.AperFunction,Conductor*%
%ADD14C,0.200000*%
%TD*%
G04 APERTURE END LIST*
D10*
%TA.AperFunction,EtchedComponent*%
%TO.C,JP1*%
G36*
X182500000Y-101300000D02*
G01*
X182000000Y-101300000D01*
X182000000Y-100700000D01*
X182500000Y-100700000D01*
X182500000Y-101300000D01*
G37*
%TD.AperFunction*%
%TD*%
D11*
%TO.P,H1,1,1*%
%TO.N,GND*%
X166000000Y-101000000D03*
%TD*%
D12*
%TO.P,JP1,1,A*%
%TO.N,Net-(JP1-A)*%
X182900000Y-101000000D03*
%TO.P,JP1,2,B*%
%TO.N,+3.3V*%
X181600000Y-101000000D03*
%TD*%
D13*
%TO.N,GND*%
X175500000Y-96000000D03*
X183986800Y-97025000D03*
X184902500Y-107625000D03*
X184902500Y-94375000D03*
X174500000Y-97500000D03*
X183986800Y-99625000D03*
X168933600Y-104975000D03*
X148000000Y-95500000D03*
X183986800Y-104975000D03*
X166000000Y-92600000D03*
X174075400Y-107724100D03*
%TO.N,+3.3V*%
X179750000Y-101000000D03*
%TO.N,Net-(JP1-A)*%
X184500000Y-101000000D03*
%TD*%
D14*
%TO.N,+3.3V*%
X179750000Y-101000000D02*
X181600000Y-101000000D01*
%TO.N,Net-(JP1-A)*%
X184500000Y-101000000D02*
X182900000Y-101000000D01*
%TD*%
%TA.AperFunction,Conductor*%
%TO.N,GND*%
G36*
X187004418Y-91000816D02*
G01*
X187204561Y-91015130D01*
X187222063Y-91017647D01*
X187413797Y-91059355D01*
X187430755Y-91064334D01*
X187614609Y-91132909D01*
X187630701Y-91140259D01*
X187802904Y-91234288D01*
X187817784Y-91243849D01*
X187974867Y-91361441D01*
X187988237Y-91373027D01*
X188126972Y-91511762D01*
X188138558Y-91525132D01*
X188256146Y-91682210D01*
X188265711Y-91697095D01*
X188359740Y-91869298D01*
X188367090Y-91885390D01*
X188435662Y-92069236D01*
X188440646Y-92086212D01*
X188482351Y-92277931D01*
X188484869Y-92295442D01*
X188499184Y-92495580D01*
X188499500Y-92504427D01*
X188499500Y-109495572D01*
X188499184Y-109504419D01*
X188484869Y-109704557D01*
X188482351Y-109722068D01*
X188440646Y-109913787D01*
X188435662Y-109930763D01*
X188367090Y-110114609D01*
X188359740Y-110130701D01*
X188265711Y-110302904D01*
X188256146Y-110317789D01*
X188138558Y-110474867D01*
X188126972Y-110488237D01*
X187988237Y-110626972D01*
X187974867Y-110638558D01*
X187817789Y-110756146D01*
X187802904Y-110765711D01*
X187630701Y-110859740D01*
X187614609Y-110867090D01*
X187430763Y-110935662D01*
X187413787Y-110940646D01*
X187222068Y-110982351D01*
X187204557Y-110984869D01*
X187023779Y-110997799D01*
X187004417Y-110999184D01*
X186995572Y-110999500D01*
X143504428Y-110999500D01*
X143495582Y-110999184D01*
X143473622Y-110997613D01*
X143295442Y-110984869D01*
X143277931Y-110982351D01*
X143086212Y-110940646D01*
X143069236Y-110935662D01*
X142885390Y-110867090D01*
X142869298Y-110859740D01*
X142697095Y-110765711D01*
X142682210Y-110756146D01*
X142525132Y-110638558D01*
X142511762Y-110626972D01*
X142373027Y-110488237D01*
X142361441Y-110474867D01*
X142243849Y-110317784D01*
X142234288Y-110302904D01*
X142140259Y-110130701D01*
X142132909Y-110114609D01*
X142072091Y-109951551D01*
X142064334Y-109930755D01*
X142059355Y-109913797D01*
X142017647Y-109722063D01*
X142015130Y-109704556D01*
X142000816Y-109504418D01*
X142000500Y-109495572D01*
X142000500Y-100361308D01*
X147734900Y-100361308D01*
X147734900Y-106993091D01*
X147769008Y-107120387D01*
X147801954Y-107177450D01*
X147834900Y-107234514D01*
X147928086Y-107327700D01*
X148042214Y-107393592D01*
X148169508Y-107427700D01*
X148169510Y-107427700D01*
X153801290Y-107427700D01*
X153801292Y-107427700D01*
X153928586Y-107393592D01*
X154042714Y-107327700D01*
X154135900Y-107234514D01*
X154201792Y-107120386D01*
X154235900Y-106993092D01*
X154235900Y-100921153D01*
X178949500Y-100921153D01*
X178949500Y-101078846D01*
X178980261Y-101233489D01*
X178980264Y-101233501D01*
X179040602Y-101379172D01*
X179040609Y-101379185D01*
X179128210Y-101510288D01*
X179128213Y-101510292D01*
X179239707Y-101621786D01*
X179239711Y-101621789D01*
X179370814Y-101709390D01*
X179370827Y-101709397D01*
X179516498Y-101769735D01*
X179516503Y-101769737D01*
X179658002Y-101797883D01*
X179671153Y-101800499D01*
X179671156Y-101800500D01*
X179671158Y-101800500D01*
X179828844Y-101800500D01*
X179828845Y-101800499D01*
X179983497Y-101769737D01*
X180129179Y-101709394D01*
X180185996Y-101671430D01*
X180260875Y-101621398D01*
X180278921Y-101615747D01*
X180294831Y-101605523D01*
X180325792Y-101601071D01*
X180327553Y-101600520D01*
X180329766Y-101600500D01*
X180475501Y-101600500D01*
X180542540Y-101620185D01*
X180588295Y-101672989D01*
X180599501Y-101724500D01*
X180599501Y-101797876D01*
X180605908Y-101857483D01*
X180656202Y-101992328D01*
X180656206Y-101992335D01*
X180742452Y-102107544D01*
X180742455Y-102107547D01*
X180857664Y-102193793D01*
X180857671Y-102193797D01*
X180992517Y-102244091D01*
X180992516Y-102244091D01*
X180999444Y-102244835D01*
X181052127Y-102250500D01*
X182147872Y-102250499D01*
X182207483Y-102244091D01*
X182207485Y-102244090D01*
X182207487Y-102244090D01*
X182215031Y-102242308D01*
X182215377Y-102243775D01*
X182276342Y-102239408D01*
X182291378Y-102243822D01*
X182292513Y-102244089D01*
X182292517Y-102244091D01*
X182352127Y-102250500D01*
X183447872Y-102250499D01*
X183507483Y-102244091D01*
X183642331Y-102193796D01*
X183757546Y-102107546D01*
X183843796Y-101992331D01*
X183894091Y-101857483D01*
X183900500Y-101797873D01*
X183900500Y-101794168D01*
X183920185Y-101727129D01*
X183972989Y-101681374D01*
X184042147Y-101671430D01*
X184093392Y-101691067D01*
X184120812Y-101709389D01*
X184120827Y-101709397D01*
X184266498Y-101769735D01*
X184266503Y-101769737D01*
X184408002Y-101797883D01*
X184421153Y-101800499D01*
X184421156Y-101800500D01*
X184421158Y-101800500D01*
X184578844Y-101800500D01*
X184578845Y-101800499D01*
X184733497Y-101769737D01*
X184879179Y-101709394D01*
X185010289Y-101621789D01*
X185121789Y-101510289D01*
X185209394Y-101379179D01*
X185269737Y-101233497D01*
X185300500Y-101078842D01*
X185300500Y-100921158D01*
X185300500Y-100921155D01*
X185300499Y-100921153D01*
X185269738Y-100766510D01*
X185269737Y-100766503D01*
X185269735Y-100766498D01*
X185209397Y-100620827D01*
X185209390Y-100620814D01*
X185121789Y-100489711D01*
X185121786Y-100489707D01*
X185010292Y-100378213D01*
X185010288Y-100378210D01*
X184879185Y-100290609D01*
X184879172Y-100290602D01*
X184733501Y-100230264D01*
X184733489Y-100230261D01*
X184578845Y-100199500D01*
X184578842Y-100199500D01*
X184421158Y-100199500D01*
X184421155Y-100199500D01*
X184266510Y-100230261D01*
X184266498Y-100230264D01*
X184120827Y-100290602D01*
X184120809Y-100290612D01*
X184093389Y-100308934D01*
X184026712Y-100329812D01*
X183959332Y-100311327D01*
X183912642Y-100259348D01*
X183900499Y-100205832D01*
X183900499Y-100202129D01*
X183900498Y-100202123D01*
X183900497Y-100202116D01*
X183894091Y-100142517D01*
X183885650Y-100119886D01*
X183843797Y-100007671D01*
X183843793Y-100007664D01*
X183757547Y-99892455D01*
X183757544Y-99892452D01*
X183642335Y-99806206D01*
X183642328Y-99806202D01*
X183507482Y-99755908D01*
X183507483Y-99755908D01*
X183447883Y-99749501D01*
X183447881Y-99749500D01*
X183447873Y-99749500D01*
X183447864Y-99749500D01*
X182352129Y-99749500D01*
X182352123Y-99749501D01*
X182292520Y-99755908D01*
X182284974Y-99757692D01*
X182284628Y-99756230D01*
X182223622Y-99760584D01*
X182208600Y-99756172D01*
X182207482Y-99755908D01*
X182147883Y-99749501D01*
X182147881Y-99749500D01*
X182147873Y-99749500D01*
X182147864Y-99749500D01*
X181052129Y-99749500D01*
X181052123Y-99749501D01*
X180992516Y-99755908D01*
X180857671Y-99806202D01*
X180857664Y-99806206D01*
X180742455Y-99892452D01*
X180742452Y-99892455D01*
X180656206Y-100007664D01*
X180656202Y-100007671D01*
X180605908Y-100142517D01*
X180599782Y-100199500D01*
X180599501Y-100202123D01*
X180599500Y-100202135D01*
X180599500Y-100275500D01*
X180596949Y-100284185D01*
X180598238Y-100293147D01*
X180587259Y-100317187D01*
X180579815Y-100342539D01*
X180572974Y-100348466D01*
X180569213Y-100356703D01*
X180546978Y-100370992D01*
X180527011Y-100388294D01*
X180516496Y-100390581D01*
X180510435Y-100394477D01*
X180475500Y-100399500D01*
X180329766Y-100399500D01*
X180262727Y-100379815D01*
X180260875Y-100378602D01*
X180129185Y-100290609D01*
X180129172Y-100290602D01*
X179983501Y-100230264D01*
X179983489Y-100230261D01*
X179828845Y-100199500D01*
X179828842Y-100199500D01*
X179671158Y-100199500D01*
X179671155Y-100199500D01*
X179516510Y-100230261D01*
X179516498Y-100230264D01*
X179370827Y-100290602D01*
X179370814Y-100290609D01*
X179239711Y-100378210D01*
X179239707Y-100378213D01*
X179128213Y-100489707D01*
X179128210Y-100489711D01*
X179040609Y-100620814D01*
X179040602Y-100620827D01*
X178980264Y-100766498D01*
X178980261Y-100766510D01*
X178949500Y-100921153D01*
X154235900Y-100921153D01*
X154235900Y-100361308D01*
X154201792Y-100234014D01*
X154135900Y-100119886D01*
X154042714Y-100026700D01*
X153985650Y-99993754D01*
X153928587Y-99960808D01*
X153864939Y-99943754D01*
X153801292Y-99926700D01*
X148301292Y-99926700D01*
X148169508Y-99926700D01*
X148042212Y-99960808D01*
X147928086Y-100026700D01*
X147928083Y-100026702D01*
X147834902Y-100119883D01*
X147834900Y-100119886D01*
X147769008Y-100234012D01*
X147734900Y-100361308D01*
X142000500Y-100361308D01*
X142000500Y-92504427D01*
X142000816Y-92495581D01*
X142015130Y-92295443D01*
X142015131Y-92295434D01*
X142017646Y-92277938D01*
X142059356Y-92086199D01*
X142064333Y-92069248D01*
X142132911Y-91885385D01*
X142140259Y-91869298D01*
X142202815Y-91754734D01*
X142234291Y-91697089D01*
X142243845Y-91682221D01*
X142361448Y-91525123D01*
X142373020Y-91511769D01*
X142511769Y-91373020D01*
X142525123Y-91361448D01*
X142682221Y-91243845D01*
X142697089Y-91234291D01*
X142869298Y-91140258D01*
X142885385Y-91132911D01*
X143069248Y-91064333D01*
X143086199Y-91059356D01*
X143277938Y-91017646D01*
X143295436Y-91015130D01*
X143495582Y-91000816D01*
X143504428Y-91000500D01*
X143565892Y-91000500D01*
X186934108Y-91000500D01*
X186995572Y-91000500D01*
X187004418Y-91000816D01*
G37*
%TD.AperFunction*%
%TD*%
M02*
