%TF.GenerationSoftware,KiCad,Pcbnew,9.0.4*%
%TF.CreationDate,2026-02-18T20:57:08-05:00*%
%TF.ProjectId,seeed_studio_GNSS,73656565-645f-4737-9475-64696f5f474e,rev?*%
%TF.SameCoordinates,Original*%
%TF.FileFunction,Legend,Top*%
%TF.FilePolarity,Positive*%
%FSLAX46Y46*%
G04 Gerber Fmt 4.6, Leading zero omitted, Abs format (unit mm)*
G04 Created by KiCad (PCBNEW 9.0.4) date 2026-02-18 20:57:08*
%MOMM*%
%LPD*%
G01*
G04 APERTURE LIST*
G04 Aperture macros list*
%AMRoundRect*
0 Rectangle with rounded corners*
0 $1 Rounding radius*
0 $2 $3 $4 $5 $6 $7 $8 $9 X,Y pos of 4 corners*
0 Add a 4 corners polygon primitive as box body*
4,1,4,$2,$3,$4,$5,$6,$7,$8,$9,$2,$3,0*
0 Add four circle primitives for the rounded corners*
1,1,$1+$1,$2,$3*
1,1,$1+$1,$4,$5*
1,1,$1+$1,$6,$7*
1,1,$1+$1,$8,$9*
0 Add four rect primitives between the rounded corners*
20,1,$1+$1,$2,$3,$4,$5,0*
20,1,$1+$1,$4,$5,$6,$7,0*
20,1,$1+$1,$6,$7,$8,$9,0*
20,1,$1+$1,$8,$9,$2,$3,0*%
G04 Aperture macros list end*
%ADD10C,0.100000*%
%ADD11C,0.150000*%
%ADD12C,0.106680*%
%ADD13C,0.120000*%
%ADD14C,0.127000*%
%ADD15C,0.504000*%
%ADD16C,0.200000*%
%ADD17C,0.010000*%
%ADD18RoundRect,0.200000X0.275000X-0.200000X0.275000X0.200000X-0.275000X0.200000X-0.275000X-0.200000X0*%
%ADD19RoundRect,0.150000X-0.587500X-0.150000X0.587500X-0.150000X0.587500X0.150000X-0.587500X0.150000X0*%
%ADD20RoundRect,0.200000X0.200000X0.275000X-0.200000X0.275000X-0.200000X-0.275000X0.200000X-0.275000X0*%
%ADD21RoundRect,0.200000X-0.200000X-0.275000X0.200000X-0.275000X0.200000X0.275000X-0.200000X0.275000X0*%
%ADD22RoundRect,0.525400X0.525400X-0.900400X0.525400X0.900400X-0.525400X0.900400X-0.525400X-0.900400X0*%
%ADD23RoundRect,0.300400X-0.300400X1.000400X-0.300400X-1.000400X0.300400X-1.000400X0.300400X1.000400X0*%
%ADD24RoundRect,0.300400X-1.000400X-0.300400X1.000400X-0.300400X1.000400X0.300400X-1.000400X0.300400X0*%
%ADD25C,1.700000*%
%ADD26C,5.600000*%
G04 APERTURE END LIST*
D10*
X184827693Y-109420038D02*
X184732455Y-109372419D01*
X184732455Y-109372419D02*
X184589598Y-109372419D01*
X184589598Y-109372419D02*
X184446741Y-109420038D01*
X184446741Y-109420038D02*
X184351503Y-109515276D01*
X184351503Y-109515276D02*
X184303884Y-109610514D01*
X184303884Y-109610514D02*
X184256265Y-109800990D01*
X184256265Y-109800990D02*
X184256265Y-109943847D01*
X184256265Y-109943847D02*
X184303884Y-110134323D01*
X184303884Y-110134323D02*
X184351503Y-110229561D01*
X184351503Y-110229561D02*
X184446741Y-110324800D01*
X184446741Y-110324800D02*
X184589598Y-110372419D01*
X184589598Y-110372419D02*
X184684836Y-110372419D01*
X184684836Y-110372419D02*
X184827693Y-110324800D01*
X184827693Y-110324800D02*
X184875312Y-110277180D01*
X184875312Y-110277180D02*
X184875312Y-109943847D01*
X184875312Y-109943847D02*
X184684836Y-109943847D01*
X179220550Y-111183609D02*
X179053884Y-110945514D01*
X178934836Y-111183609D02*
X178934836Y-110683609D01*
X178934836Y-110683609D02*
X179125312Y-110683609D01*
X179125312Y-110683609D02*
X179172931Y-110707419D01*
X179172931Y-110707419D02*
X179196741Y-110731228D01*
X179196741Y-110731228D02*
X179220550Y-110778847D01*
X179220550Y-110778847D02*
X179220550Y-110850276D01*
X179220550Y-110850276D02*
X179196741Y-110897895D01*
X179196741Y-110897895D02*
X179172931Y-110921704D01*
X179172931Y-110921704D02*
X179125312Y-110945514D01*
X179125312Y-110945514D02*
X178934836Y-110945514D01*
X188077693Y-107122419D02*
X187506265Y-107122419D01*
X187791979Y-107122419D02*
X187791979Y-106122419D01*
X187791979Y-106122419D02*
X187696741Y-106265276D01*
X187696741Y-106265276D02*
X187601503Y-106360514D01*
X187601503Y-106360514D02*
X187506265Y-106408133D01*
D11*
X167833333Y-93804819D02*
X167500000Y-93328628D01*
X167261905Y-93804819D02*
X167261905Y-92804819D01*
X167261905Y-92804819D02*
X167642857Y-92804819D01*
X167642857Y-92804819D02*
X167738095Y-92852438D01*
X167738095Y-92852438D02*
X167785714Y-92900057D01*
X167785714Y-92900057D02*
X167833333Y-92995295D01*
X167833333Y-92995295D02*
X167833333Y-93138152D01*
X167833333Y-93138152D02*
X167785714Y-93233390D01*
X167785714Y-93233390D02*
X167738095Y-93281009D01*
X167738095Y-93281009D02*
X167642857Y-93328628D01*
X167642857Y-93328628D02*
X167261905Y-93328628D01*
X168738095Y-92804819D02*
X168261905Y-92804819D01*
X168261905Y-92804819D02*
X168214286Y-93281009D01*
X168214286Y-93281009D02*
X168261905Y-93233390D01*
X168261905Y-93233390D02*
X168357143Y-93185771D01*
X168357143Y-93185771D02*
X168595238Y-93185771D01*
X168595238Y-93185771D02*
X168690476Y-93233390D01*
X168690476Y-93233390D02*
X168738095Y-93281009D01*
X168738095Y-93281009D02*
X168785714Y-93376247D01*
X168785714Y-93376247D02*
X168785714Y-93614342D01*
X168785714Y-93614342D02*
X168738095Y-93709580D01*
X168738095Y-93709580D02*
X168690476Y-93757200D01*
X168690476Y-93757200D02*
X168595238Y-93804819D01*
X168595238Y-93804819D02*
X168357143Y-93804819D01*
X168357143Y-93804819D02*
X168261905Y-93757200D01*
X168261905Y-93757200D02*
X168214286Y-93709580D01*
X165833333Y-93804819D02*
X165500000Y-93328628D01*
X165261905Y-93804819D02*
X165261905Y-92804819D01*
X165261905Y-92804819D02*
X165642857Y-92804819D01*
X165642857Y-92804819D02*
X165738095Y-92852438D01*
X165738095Y-92852438D02*
X165785714Y-92900057D01*
X165785714Y-92900057D02*
X165833333Y-92995295D01*
X165833333Y-92995295D02*
X165833333Y-93138152D01*
X165833333Y-93138152D02*
X165785714Y-93233390D01*
X165785714Y-93233390D02*
X165738095Y-93281009D01*
X165738095Y-93281009D02*
X165642857Y-93328628D01*
X165642857Y-93328628D02*
X165261905Y-93328628D01*
X166690476Y-93138152D02*
X166690476Y-93804819D01*
X166452381Y-92757200D02*
X166214286Y-93471485D01*
X166214286Y-93471485D02*
X166833333Y-93471485D01*
X163833333Y-93804819D02*
X163500000Y-93328628D01*
X163261905Y-93804819D02*
X163261905Y-92804819D01*
X163261905Y-92804819D02*
X163642857Y-92804819D01*
X163642857Y-92804819D02*
X163738095Y-92852438D01*
X163738095Y-92852438D02*
X163785714Y-92900057D01*
X163785714Y-92900057D02*
X163833333Y-92995295D01*
X163833333Y-92995295D02*
X163833333Y-93138152D01*
X163833333Y-93138152D02*
X163785714Y-93233390D01*
X163785714Y-93233390D02*
X163738095Y-93281009D01*
X163738095Y-93281009D02*
X163642857Y-93328628D01*
X163642857Y-93328628D02*
X163261905Y-93328628D01*
X164166667Y-92804819D02*
X164785714Y-92804819D01*
X164785714Y-92804819D02*
X164452381Y-93185771D01*
X164452381Y-93185771D02*
X164595238Y-93185771D01*
X164595238Y-93185771D02*
X164690476Y-93233390D01*
X164690476Y-93233390D02*
X164738095Y-93281009D01*
X164738095Y-93281009D02*
X164785714Y-93376247D01*
X164785714Y-93376247D02*
X164785714Y-93614342D01*
X164785714Y-93614342D02*
X164738095Y-93709580D01*
X164738095Y-93709580D02*
X164690476Y-93757200D01*
X164690476Y-93757200D02*
X164595238Y-93804819D01*
X164595238Y-93804819D02*
X164309524Y-93804819D01*
X164309524Y-93804819D02*
X164214286Y-93757200D01*
X164214286Y-93757200D02*
X164166667Y-93709580D01*
X168467261Y-111050057D02*
X168372023Y-111002438D01*
X168372023Y-111002438D02*
X168276785Y-110907200D01*
X168276785Y-110907200D02*
X168133928Y-110764342D01*
X168133928Y-110764342D02*
X168038690Y-110716723D01*
X168038690Y-110716723D02*
X167943452Y-110716723D01*
X167991071Y-110954819D02*
X167895833Y-110907200D01*
X167895833Y-110907200D02*
X167800595Y-110811961D01*
X167800595Y-110811961D02*
X167752976Y-110621485D01*
X167752976Y-110621485D02*
X167752976Y-110288152D01*
X167752976Y-110288152D02*
X167800595Y-110097676D01*
X167800595Y-110097676D02*
X167895833Y-110002438D01*
X167895833Y-110002438D02*
X167991071Y-109954819D01*
X167991071Y-109954819D02*
X168181547Y-109954819D01*
X168181547Y-109954819D02*
X168276785Y-110002438D01*
X168276785Y-110002438D02*
X168372023Y-110097676D01*
X168372023Y-110097676D02*
X168419642Y-110288152D01*
X168419642Y-110288152D02*
X168419642Y-110621485D01*
X168419642Y-110621485D02*
X168372023Y-110811961D01*
X168372023Y-110811961D02*
X168276785Y-110907200D01*
X168276785Y-110907200D02*
X168181547Y-110954819D01*
X168181547Y-110954819D02*
X167991071Y-110954819D01*
X169372023Y-110954819D02*
X168800595Y-110954819D01*
X169086309Y-110954819D02*
X169086309Y-109954819D01*
X169086309Y-109954819D02*
X168991071Y-110097676D01*
X168991071Y-110097676D02*
X168895833Y-110192914D01*
X168895833Y-110192914D02*
X168800595Y-110240533D01*
X164333333Y-105454819D02*
X164000000Y-104978628D01*
X163761905Y-105454819D02*
X163761905Y-104454819D01*
X163761905Y-104454819D02*
X164142857Y-104454819D01*
X164142857Y-104454819D02*
X164238095Y-104502438D01*
X164238095Y-104502438D02*
X164285714Y-104550057D01*
X164285714Y-104550057D02*
X164333333Y-104645295D01*
X164333333Y-104645295D02*
X164333333Y-104788152D01*
X164333333Y-104788152D02*
X164285714Y-104883390D01*
X164285714Y-104883390D02*
X164238095Y-104931009D01*
X164238095Y-104931009D02*
X164142857Y-104978628D01*
X164142857Y-104978628D02*
X163761905Y-104978628D01*
X165285714Y-105454819D02*
X164714286Y-105454819D01*
X165000000Y-105454819D02*
X165000000Y-104454819D01*
X165000000Y-104454819D02*
X164904762Y-104597676D01*
X164904762Y-104597676D02*
X164809524Y-104692914D01*
X164809524Y-104692914D02*
X164714286Y-104740533D01*
X164333333Y-108454819D02*
X164000000Y-107978628D01*
X163761905Y-108454819D02*
X163761905Y-107454819D01*
X163761905Y-107454819D02*
X164142857Y-107454819D01*
X164142857Y-107454819D02*
X164238095Y-107502438D01*
X164238095Y-107502438D02*
X164285714Y-107550057D01*
X164285714Y-107550057D02*
X164333333Y-107645295D01*
X164333333Y-107645295D02*
X164333333Y-107788152D01*
X164333333Y-107788152D02*
X164285714Y-107883390D01*
X164285714Y-107883390D02*
X164238095Y-107931009D01*
X164238095Y-107931009D02*
X164142857Y-107978628D01*
X164142857Y-107978628D02*
X163761905Y-107978628D01*
X164714286Y-107550057D02*
X164761905Y-107502438D01*
X164761905Y-107502438D02*
X164857143Y-107454819D01*
X164857143Y-107454819D02*
X165095238Y-107454819D01*
X165095238Y-107454819D02*
X165190476Y-107502438D01*
X165190476Y-107502438D02*
X165238095Y-107550057D01*
X165238095Y-107550057D02*
X165285714Y-107645295D01*
X165285714Y-107645295D02*
X165285714Y-107740533D01*
X165285714Y-107740533D02*
X165238095Y-107883390D01*
X165238095Y-107883390D02*
X164666667Y-108454819D01*
X164666667Y-108454819D02*
X165285714Y-108454819D01*
D12*
X151241850Y-98616391D02*
X151241850Y-99249698D01*
X151241850Y-99249698D02*
X151279104Y-99324204D01*
X151279104Y-99324204D02*
X151316357Y-99361458D01*
X151316357Y-99361458D02*
X151390864Y-99398711D01*
X151390864Y-99398711D02*
X151539877Y-99398711D01*
X151539877Y-99398711D02*
X151614384Y-99361458D01*
X151614384Y-99361458D02*
X151651637Y-99324204D01*
X151651637Y-99324204D02*
X151688890Y-99249698D01*
X151688890Y-99249698D02*
X151688890Y-98616391D01*
X152024170Y-98690898D02*
X152061423Y-98653644D01*
X152061423Y-98653644D02*
X152135930Y-98616391D01*
X152135930Y-98616391D02*
X152322197Y-98616391D01*
X152322197Y-98616391D02*
X152396703Y-98653644D01*
X152396703Y-98653644D02*
X152433957Y-98690898D01*
X152433957Y-98690898D02*
X152471210Y-98765404D01*
X152471210Y-98765404D02*
X152471210Y-98839911D01*
X152471210Y-98839911D02*
X152433957Y-98951671D01*
X152433957Y-98951671D02*
X151986917Y-99398711D01*
X151986917Y-99398711D02*
X152471210Y-99398711D01*
D11*
X178373495Y-98954819D02*
X178373495Y-99764342D01*
X178373495Y-99764342D02*
X178421114Y-99859580D01*
X178421114Y-99859580D02*
X178468733Y-99907200D01*
X178468733Y-99907200D02*
X178563971Y-99954819D01*
X178563971Y-99954819D02*
X178754447Y-99954819D01*
X178754447Y-99954819D02*
X178849685Y-99907200D01*
X178849685Y-99907200D02*
X178897304Y-99859580D01*
X178897304Y-99859580D02*
X178944923Y-99764342D01*
X178944923Y-99764342D02*
X178944923Y-98954819D01*
X179944923Y-99954819D02*
X179373495Y-99954819D01*
X179659209Y-99954819D02*
X179659209Y-98954819D01*
X179659209Y-98954819D02*
X179563971Y-99097676D01*
X179563971Y-99097676D02*
X179468733Y-99192914D01*
X179468733Y-99192914D02*
X179373495Y-99240533D01*
X167738095Y-98454819D02*
X167738095Y-97454819D01*
X167738095Y-97931009D02*
X168309523Y-97931009D01*
X168309523Y-98454819D02*
X168309523Y-97454819D01*
X169309523Y-98454819D02*
X168738095Y-98454819D01*
X169023809Y-98454819D02*
X169023809Y-97454819D01*
X169023809Y-97454819D02*
X168928571Y-97597676D01*
X168928571Y-97597676D02*
X168833333Y-97692914D01*
X168833333Y-97692914D02*
X168738095Y-97740533D01*
D13*
%TO.C,R5*%
X168522500Y-95912258D02*
X168522500Y-95437742D01*
X167477500Y-95912258D02*
X167477500Y-95437742D01*
%TO.C,R4*%
X165477500Y-95912258D02*
X165477500Y-95437742D01*
X166522500Y-95912258D02*
X166522500Y-95437742D01*
%TO.C,R3*%
X163457500Y-95912258D02*
X163457500Y-95437742D01*
X164502500Y-95912258D02*
X164502500Y-95437742D01*
%TO.C,Q1*%
X168562500Y-106440000D02*
X167912500Y-106440000D01*
X168562500Y-106440000D02*
X169212500Y-106440000D01*
X168562500Y-109560000D02*
X167912500Y-109560000D01*
X168562500Y-109560000D02*
X169212500Y-109560000D01*
X167400000Y-106490000D02*
X167160000Y-106160000D01*
X167640000Y-106160000D01*
X167400000Y-106490000D01*
G36*
X167400000Y-106490000D02*
G01*
X167160000Y-106160000D01*
X167640000Y-106160000D01*
X167400000Y-106490000D01*
G37*
%TO.C,R1*%
X164737258Y-105977500D02*
X164262742Y-105977500D01*
X164737258Y-107022500D02*
X164262742Y-107022500D01*
%TO.C,R2*%
X164262742Y-108977500D02*
X164737258Y-108977500D01*
X164262742Y-110022500D02*
X164737258Y-110022500D01*
D14*
%TO.C,U2*%
X140068400Y-105028472D02*
X140068400Y-97033200D01*
X140568400Y-96533200D02*
X141578400Y-96533200D01*
D10*
X141578400Y-94052200D02*
X141578400Y-108022200D01*
D14*
X141578400Y-105532200D02*
X140568128Y-105528472D01*
D10*
X160628400Y-92147200D02*
X143483400Y-92147200D01*
X160628400Y-109927200D02*
X143483400Y-109927200D01*
X162533400Y-108022200D02*
X162533400Y-94052200D01*
D14*
X140068400Y-97033200D02*
G75*
G02*
X140568400Y-96533200I500100J-100D01*
G01*
X140568128Y-105528472D02*
G75*
G02*
X140068401Y-105028472I291J500018D01*
G01*
D10*
X141578400Y-94052200D02*
G75*
G02*
X143483400Y-92147200I1905050J-50D01*
G01*
X143479400Y-109927200D02*
G75*
G02*
X141574400Y-108022200I1J1905001D01*
G01*
X160628400Y-92147200D02*
G75*
G02*
X162533400Y-94052200I0J-1905000D01*
G01*
X162533400Y-108022200D02*
G75*
G02*
X160628400Y-109927200I-1905001J1D01*
G01*
D15*
X142246400Y-110137200D02*
G75*
G02*
X141742400Y-110137200I-252000J0D01*
G01*
X141742400Y-110137200D02*
G75*
G02*
X142246400Y-110137200I252000J0D01*
G01*
X142963400Y-108863200D02*
G75*
G02*
X142459400Y-108863200I-252000J0D01*
G01*
X142459400Y-108863200D02*
G75*
G02*
X142963400Y-108863200I252000J0D01*
G01*
D16*
%TO.C,U1*%
X187735400Y-104800000D02*
G75*
G02*
X187535400Y-104800000I-100000J0D01*
G01*
X187535400Y-104800000D02*
G75*
G02*
X187735400Y-104800000I100000J0D01*
G01*
D14*
X186885400Y-108750000D02*
X186885400Y-106000000D01*
X186885400Y-108750000D02*
X184135400Y-108750000D01*
X186885400Y-93250000D02*
X186885400Y-96000000D01*
X186885400Y-93250000D02*
X184135400Y-93250000D01*
X171385400Y-108750000D02*
X174135400Y-108750000D01*
X171385400Y-108750000D02*
X171385400Y-106000000D01*
X171385400Y-93250000D02*
X174135400Y-93250000D01*
X171385400Y-93250000D02*
X171385400Y-96000000D01*
%TD*%
%LPC*%
D17*
%TO.C,U1*%
X188685400Y-105600000D02*
X184785400Y-105600000D01*
X184785400Y-104000000D01*
X188685400Y-104000000D01*
X188685400Y-105600000D01*
G36*
X188685400Y-105600000D02*
G01*
X184785400Y-105600000D01*
X184785400Y-104000000D01*
X188685400Y-104000000D01*
X188685400Y-105600000D01*
G37*
X188685400Y-103700000D02*
X184785400Y-103700000D01*
X184785400Y-102100000D01*
X188685400Y-102100000D01*
X188685400Y-103700000D01*
G36*
X188685400Y-103700000D02*
G01*
X184785400Y-103700000D01*
X184785400Y-102100000D01*
X188685400Y-102100000D01*
X188685400Y-103700000D01*
G37*
X188685400Y-101800000D02*
X184785400Y-101800000D01*
X184785400Y-100200000D01*
X188685400Y-100200000D01*
X188685400Y-101800000D01*
G36*
X188685400Y-101800000D02*
G01*
X184785400Y-101800000D01*
X184785400Y-100200000D01*
X188685400Y-100200000D01*
X188685400Y-101800000D01*
G37*
X188685400Y-99900000D02*
X184785400Y-99900000D01*
X184785400Y-98300000D01*
X188685400Y-98300000D01*
X188685400Y-99900000D01*
G36*
X188685400Y-99900000D02*
G01*
X184785400Y-99900000D01*
X184785400Y-98300000D01*
X188685400Y-98300000D01*
X188685400Y-99900000D01*
G37*
X188685400Y-98000000D02*
X184785400Y-98000000D01*
X184785400Y-96400000D01*
X188685400Y-96400000D01*
X188685400Y-98000000D01*
G36*
X188685400Y-98000000D02*
G01*
X184785400Y-98000000D01*
X184785400Y-96400000D01*
X188685400Y-96400000D01*
X188685400Y-98000000D01*
G37*
X183735400Y-110550000D02*
X182135400Y-110550000D01*
X182135400Y-106650000D01*
X183735400Y-106650000D01*
X183735400Y-110550000D01*
G36*
X183735400Y-110550000D02*
G01*
X182135400Y-110550000D01*
X182135400Y-106650000D01*
X183735400Y-106650000D01*
X183735400Y-110550000D01*
G37*
X183735400Y-95350000D02*
X182135400Y-95350000D01*
X182135400Y-91450000D01*
X183735400Y-91450000D01*
X183735400Y-95350000D01*
G36*
X183735400Y-95350000D02*
G01*
X182135400Y-95350000D01*
X182135400Y-91450000D01*
X183735400Y-91450000D01*
X183735400Y-95350000D01*
G37*
X181835400Y-110550000D02*
X180235400Y-110550000D01*
X180235400Y-106650000D01*
X181835400Y-106650000D01*
X181835400Y-110550000D01*
G36*
X181835400Y-110550000D02*
G01*
X180235400Y-110550000D01*
X180235400Y-106650000D01*
X181835400Y-106650000D01*
X181835400Y-110550000D01*
G37*
X181835400Y-95350000D02*
X180235400Y-95350000D01*
X180235400Y-91450000D01*
X181835400Y-91450000D01*
X181835400Y-95350000D01*
G36*
X181835400Y-95350000D02*
G01*
X180235400Y-95350000D01*
X180235400Y-91450000D01*
X181835400Y-91450000D01*
X181835400Y-95350000D01*
G37*
X179935400Y-110550000D02*
X178335400Y-110550000D01*
X178335400Y-106650000D01*
X179935400Y-106650000D01*
X179935400Y-110550000D01*
G36*
X179935400Y-110550000D02*
G01*
X178335400Y-110550000D01*
X178335400Y-106650000D01*
X179935400Y-106650000D01*
X179935400Y-110550000D01*
G37*
X179935400Y-95350000D02*
X178335400Y-95350000D01*
X178335400Y-91450000D01*
X179935400Y-91450000D01*
X179935400Y-95350000D01*
G36*
X179935400Y-95350000D02*
G01*
X178335400Y-95350000D01*
X178335400Y-91450000D01*
X179935400Y-91450000D01*
X179935400Y-95350000D01*
G37*
X178035400Y-110550000D02*
X176435400Y-110550000D01*
X176435400Y-106650000D01*
X178035400Y-106650000D01*
X178035400Y-110550000D01*
G36*
X178035400Y-110550000D02*
G01*
X176435400Y-110550000D01*
X176435400Y-106650000D01*
X178035400Y-106650000D01*
X178035400Y-110550000D01*
G37*
X178035400Y-95350000D02*
X176435400Y-95350000D01*
X176435400Y-91450000D01*
X178035400Y-91450000D01*
X178035400Y-95350000D01*
G36*
X178035400Y-95350000D02*
G01*
X176435400Y-95350000D01*
X176435400Y-91450000D01*
X178035400Y-91450000D01*
X178035400Y-95350000D01*
G37*
X176135400Y-110550000D02*
X174535400Y-110550000D01*
X174535400Y-106650000D01*
X176135400Y-106650000D01*
X176135400Y-110550000D01*
G36*
X176135400Y-110550000D02*
G01*
X174535400Y-110550000D01*
X174535400Y-106650000D01*
X176135400Y-106650000D01*
X176135400Y-110550000D01*
G37*
X176135400Y-95350000D02*
X174535400Y-95350000D01*
X174535400Y-91450000D01*
X176135400Y-91450000D01*
X176135400Y-95350000D01*
G36*
X176135400Y-95350000D02*
G01*
X174535400Y-95350000D01*
X174535400Y-91450000D01*
X176135400Y-91450000D01*
X176135400Y-95350000D01*
G37*
X173485400Y-105600000D02*
X169585400Y-105600000D01*
X169585400Y-104000000D01*
X173485400Y-104000000D01*
X173485400Y-105600000D01*
G36*
X173485400Y-105600000D02*
G01*
X169585400Y-105600000D01*
X169585400Y-104000000D01*
X173485400Y-104000000D01*
X173485400Y-105600000D01*
G37*
X173485400Y-103700000D02*
X169585400Y-103700000D01*
X169585400Y-102100000D01*
X173485400Y-102100000D01*
X173485400Y-103700000D01*
G36*
X173485400Y-103700000D02*
G01*
X169585400Y-103700000D01*
X169585400Y-102100000D01*
X173485400Y-102100000D01*
X173485400Y-103700000D01*
G37*
X173485400Y-101800000D02*
X169585400Y-101800000D01*
X169585400Y-100200000D01*
X173485400Y-100200000D01*
X173485400Y-101800000D01*
G36*
X173485400Y-101800000D02*
G01*
X169585400Y-101800000D01*
X169585400Y-100200000D01*
X173485400Y-100200000D01*
X173485400Y-101800000D01*
G37*
X173485400Y-99900000D02*
X169585400Y-99900000D01*
X169585400Y-98300000D01*
X173485400Y-98300000D01*
X173485400Y-99900000D01*
G36*
X173485400Y-99900000D02*
G01*
X169585400Y-99900000D01*
X169585400Y-98300000D01*
X173485400Y-98300000D01*
X173485400Y-99900000D01*
G37*
X173485400Y-98000000D02*
X169585400Y-98000000D01*
X169585400Y-96400000D01*
X173485400Y-96400000D01*
X173485400Y-98000000D01*
G36*
X173485400Y-98000000D02*
G01*
X169585400Y-98000000D01*
X169585400Y-96400000D01*
X173485400Y-96400000D01*
X173485400Y-98000000D01*
G37*
%TD*%
D18*
%TO.C,R5*%
X168000000Y-94850000D03*
X168000000Y-96500000D03*
%TD*%
%TO.C,R4*%
X166000000Y-96500000D03*
X166000000Y-94850000D03*
%TD*%
%TO.C,R3*%
X163980000Y-96500000D03*
X163980000Y-94850000D03*
%TD*%
D19*
%TO.C,Q1*%
X167625000Y-107050000D03*
X167625000Y-108950000D03*
X169500000Y-108000000D03*
%TD*%
D20*
%TO.C,R1*%
X165325000Y-106500000D03*
X163675000Y-106500000D03*
%TD*%
D21*
%TO.C,R2*%
X163675000Y-109500000D03*
X165325000Y-109500000D03*
%TD*%
D22*
%TO.C,U2*%
X144495400Y-109092200D03*
X147035400Y-109092200D03*
X149575400Y-109092200D03*
X152115400Y-109092200D03*
X154655400Y-109092200D03*
X157195400Y-109092200D03*
X159735400Y-109092200D03*
X159735400Y-92927200D03*
X157195400Y-92927200D03*
X154655400Y-92927200D03*
X152115400Y-92927200D03*
X149575400Y-92927200D03*
X147035400Y-92927200D03*
X144495400Y-92927200D03*
D23*
X151801900Y-105482200D03*
X149896900Y-105482200D03*
D24*
X161352300Y-97227200D03*
X161352300Y-95322200D03*
D25*
X143546900Y-102307200D03*
X143546900Y-99767200D03*
X146086900Y-102307200D03*
X146086900Y-99767200D03*
%TD*%
D26*
%TO.C,H1*%
X166000000Y-101000000D03*
%TD*%
%LPD*%
M02*
